<?xml version="1.0" standalone="no"?>
<!DOCTYPE svg PUBLIC "-//W3C//DTD SVG 20010904//EN"
 "http://www.w3.org/TR/2001/REC-SVG-20010904/DTD/svg10.dtd">
<svg version="1.0" xmlns="http://www.w3.org/2000/svg"
 width="1280.000000pt" height="145.000000pt" viewBox="0 0 1280.000000 145.000000"
 preserveAspectRatio="xMidYMid meet">
<metadata>
Created by potrace 1.16, written by Peter Selinger 2001-2019
</metadata>
<g transform="translate(0.000000,145.000000) scale(0.100000,-0.100000)"
fill="#000000" stroke="none">
<path d="M12515 1415 c-22 -8 -57 -32 -77 -53 -113 -121 -48 -322 115 -353 72
-13 133 6 188 61 53 53 64 87 57 175 -11 135 -148 218 -283 170z m151 -44
c100 -45 126 -182 52 -267 -44 -50 -82 -67 -139 -62 -112 11 -185 128 -145
232 38 100 136 141 232 97z"/>
<path d="M12490 1220 l0 -120 25 0 c23 0 25 4 25 40 0 38 2 40 31 40 46 0 69
-16 69 -50 0 -25 4 -30 25 -30 22 0 25 4 25 33 0 18 -6 42 -14 52 -11 16 -11
21 0 33 20 20 18 86 -4 105 -14 13 -38 17 -100 17 l-82 0 0 -120z"/>
<path d="M0 898 c0 -536 3 -577 51 -670 29 -58 100 -130 157 -161 27 -15 87
-36 133 -47 80 -19 117 -20 747 -20 l662 0 0 700 0 700 -220 0 -220 0 0 -437
c0 -271 -4 -452 -10 -475 -17 -59 -54 -96 -115 -114 -45 -12 -104 -15 -337
-12 -272 3 -285 4 -325 26 -28 15 -50 37 -65 65 -23 42 -23 46 -26 495 l-3
452 -214 0 -215 0 0 -502z"/>
<path d="M2080 700 l0 -700 735 0 c501 0 751 4 787 11 187 39 259 143 260 371
0 183 -46 274 -159 314 -29 10 -53 21 -53 24 1 3 24 19 53 35 67 39 94 87 107
192 19 151 -20 302 -94 358 -48 37 -117 64 -202 80 -62 12 -203 15 -755 15
l-679 0 0 -700z m1257 350 c37 -22 48 -53 40 -112 -7 -50 -22 -67 -73 -78 -21
-5 -209 -10 -416 -10 l-378 0 0 110 0 110 398 0 c377 0 399 -1 429 -20z m40
-516 c35 -26 50 -80 37 -132 -7 -28 -17 -41 -44 -54 -32 -16 -75 -18 -447 -18
l-413 0 0 116 0 115 419 -3 c408 -3 420 -4 448 -24z"/>
<path d="M4130 700 l0 -700 215 0 215 0 0 700 0 700 -215 0 -215 0 0 -700z"/>
<path d="M4890 1131 c0 -286 6 -344 46 -423 53 -105 145 -162 286 -178 45 -6
282 -10 526 -10 l442 0 0 -64 c0 -54 -4 -70 -24 -93 l-24 -28 -415 -3 c-457
-3 -447 -5 -447 59 l0 29 -201 0 -201 0 4 -108 c6 -158 45 -229 155 -283 l48
-24 640 0 c592 0 644 1 692 18 73 25 133 75 168 138 l30 54 3 202 c3 164 0
213 -13 258 -30 103 -108 162 -246 184 -37 6 -240 11 -482 11 -276 0 -433 4
-463 11 -66 17 -94 55 -94 130 l0 59 410 0 c397 0 411 -1 430 -20 11 -11 20
-29 20 -40 0 -19 7 -20 196 -20 l196 0 -4 98 c-6 162 -57 237 -193 288 -47 18
-95 19 -767 22 l-718 3 0 -270z"/>
<path d="M7203 1385 c-203 -37 -334 -161 -363 -345 -15 -97 -12 -599 4 -690
35 -193 144 -295 358 -335 126 -23 1094 -17 1175 7 122 37 215 103 256 183 48
94 50 118 54 673 l4 522 -708 -1 c-538 -1 -725 -4 -780 -14z m1045 -617 c-3
-254 -4 -276 -24 -313 -13 -26 -37 -49 -65 -65 l-44 -25 -333 -3 c-279 -3
-341 -1 -386 12 -62 18 -99 55 -116 114 -14 51 -13 370 2 413 24 71 68 111
143 130 17 4 209 7 428 8 l398 1 -3 -272z"/>
<path d="M9000 700 l0 -700 215 0 215 0 0 225 0 225 490 0 490 0 0 180 0 180
-490 0 -490 0 0 115 0 115 515 0 515 0 0 180 0 180 -730 0 -730 0 0 -700z"/>
<path d="M10610 1220 l0 -180 295 0 295 0 0 -520 0 -520 220 0 220 0 0 520 0
520 295 0 295 0 0 180 0 180 -810 0 -810 0 0 -180z"/>
</g>
</svg>
