<svg version="1.0" xmlns="http://www.w3.org/2000/svg" xmlns:xlink="http://www.w3.org/1999/xlink" viewBox="0 0 24 24"><defs><path id="a" d="M-724.5-464.9h1978.7V365H-724.5z"/></defs><defs><path id="b" d="M-520.4-474.6h1714.1v718.9H-520.4z"/></defs><path fill="#007FED" d="M9.5 14.5c-2.8 0-5-2.2-5-5s2.2-5 5-5 5 2.2 5 5-2.2 5-5 5zm6.8.1h-.9l-.3-.3c1.1-1.3 1.8-3 1.8-4.8 0-4.1-3.3-7.4-7.4-7.4S2 5.3 2 9.4s3.3 7.4 7.4 7.4c1.8 0 3.5-.7 4.8-1.8l.3.3v.9l5.7 5.7 1.7-1.7-5.6-5.6z"/><defs><path id="c" d="M107.9 5.7L100 2l-7.9 3.6V11c0 5 3.4 9.7 7.9 10.9 2-.5 3.8-1.7 5.1-3.4l-2.7-2.8c-1.7 1.2-4 1-5.5-.6-1.7-1.8-1.7-4.6 0-6.4 1.7-1.8 4.5-1.8 6.2 0 1.5 1.6 1.7 3.9.6 5.7l2.5 2.6c1.1-1.8 1.7-3.9 1.7-6V5.7z"/></defs><clipPath id="d"><use xlink:href="#c" overflow="visible"/></clipPath><g clip-path="url(#d)"><defs><path id="e" d="M-895.2-323.2H952.1v774.7H-895.2z"/></defs></g><g><defs><ellipse id="f" cx="100" cy="12" rx="2.6" ry="2.7"/></defs><clipPath id="g"><use xlink:href="#f" overflow="visible"/></clipPath><g clip-path="url(#g)"><defs><path id="h" d="M-895.2-323.2H952.1v774.7H-895.2z"/></defs></g></g></svg>
