<svg version="1.0" xmlns="http://www.w3.org/2000/svg" xmlns:xlink="http://www.w3.org/1999/xlink" viewBox="0 0 24 24"><path fill="#007FED" d="M13 9V3.5L18.5 9H13zm3 5H8v-2h8v2zm0 4H8v-2h8v2zM14 2H6c-1.1 0-2 .9-2 2v16c0 1.1.9 2 2 2h12c1.1 0 2-.9 2-2V8l-6-6z"/><defs><path id="a" d="M-944.5-376.9h1978.7V453H-944.5z"/></defs><defs><path id="b" d="M-740.4-386.6H973.7v718.9H-740.4z"/></defs><defs><path id="c" d="M-112.1 93.7L-120 90l-7.9 3.6V99c0 5 3.4 9.7 7.9 10.9 2-.5 3.8-1.7 5.1-3.4l-2.7-2.8c-1.7 1.2-4 1-5.5-.6-1.7-1.8-1.7-4.6 0-6.4 1.7-1.8 4.5-1.8 6.2 0 1.5 1.6 1.7 3.9.6 5.7l2.5 2.6c1.1-1.8 1.7-3.9 1.7-6v-5.3z"/></defs><clipPath id="d"><use xlink:href="#c" overflow="visible"/></clipPath><g clip-path="url(#d)"><defs><path id="e" d="M-1115.2-235.2H732.1v774.7h-1847.3z"/></defs></g><g><defs><ellipse id="f" cx="-120" cy="100" rx="2.6" ry="2.7"/></defs><clipPath id="g"><use xlink:href="#f" overflow="visible"/></clipPath><g clip-path="url(#g)"><defs><path id="h" d="M-1115.2-235.2H732.1v774.7h-1847.3z"/></defs></g></g></svg>
