<svg version="1.0" xmlns="http://www.w3.org/2000/svg" xmlns:xlink="http://www.w3.org/1999/xlink" viewBox="0 0 24 24"><path fill-rule="evenodd" clip-rule="evenodd" fill="#007FED" d="M20.2 17c-1-.3-2.1-.5-3.2-.5-1.5 0-3.8.6-5 1.4V7.5c1.2-.8 3.4-1.4 5-1.4 1.1 0 2.2.1 3.2.5V17zm0-12.3c-1-.3-2.1-.5-3.2-.5-1.8 0-3.7.4-5 1.4-1.3-1-3.2-1.4-5-1.4s-3.7.4-5 1.4v13.3c0 .2.2.5.5.5h.2c1.2-.6 3-1 4.3-1 1.8 0 3.7.4 5 1.4 1.2-.8 3.4-1.4 5-1.4 1.5 0 3 .3 4.3 1h.2c.2 0 .5-.2.5-.5V5.6c-.6-.4-1.2-.6-1.8-.9z"/><defs><path id="a" d="M-900.5-376.9h1978.7V453H-900.5z"/></defs><defs><path id="b" d="M-696.4-386.6h1714.1v718.9H-696.4z"/></defs><defs><path id="c" d="M-68.1 93.7L-76 90l-7.9 3.6V99c0 5 3.4 9.7 7.9 10.9 2-.5 3.8-1.7 5.1-3.4l-2.7-2.8c-1.7 1.2-4 1-5.5-.6-1.7-1.8-1.7-4.6 0-6.4 1.7-1.8 4.5-1.8 6.2 0 1.5 1.6 1.7 3.9.6 5.7l2.5 2.6c1.1-1.8 1.7-3.9 1.7-6v-5.3z"/></defs><clipPath id="d"><use xlink:href="#c" overflow="visible"/></clipPath><g clip-path="url(#d)"><defs><path id="e" d="M-1071.2-235.2H776.1v774.7h-1847.3z"/></defs></g><g><defs><ellipse id="f" cx="-76" cy="100" rx="2.6" ry="2.7"/></defs><clipPath id="g"><use xlink:href="#f" overflow="visible"/></clipPath><g clip-path="url(#g)"><defs><path id="h" d="M-1071.2-235.2H776.1v774.7h-1847.3z"/></defs></g></g></svg>
