<svg version="1.0" xmlns="http://www.w3.org/2000/svg" xmlns:xlink="http://www.w3.org/1999/xlink" viewBox="0 0 24 24"><defs><path id="a" d="M-900.5-508.9h1978.7V321H-900.5z"/></defs><defs><path id="b" d="M-696.4-518.6h1714.1v718.9H-696.4z"/></defs><defs><path id="c" d="M-68.1-38.3L-76-42l-7.9 3.6v5.4c0 5 3.4 9.7 7.9 10.9 2-.5 3.8-1.7 5.1-3.4l-2.7-2.8c-1.7 1.2-4 1-5.5-.6-1.7-1.8-1.7-4.6 0-6.4 1.7-1.8 4.5-1.8 6.2 0 1.5 1.6 1.7 3.9.6 5.7l2.5 2.6c1.1-1.8 1.7-3.9 1.7-6v-5.3z"/></defs><clipPath id="d"><use xlink:href="#c" overflow="visible"/></clipPath><g clip-path="url(#d)"><defs><path id="e" d="M-1071.2-367.2H776.1v774.7h-1847.3z"/></defs></g><g><defs><ellipse id="f" cx="-76" cy="-32" rx="2.6" ry="2.7"/></defs><clipPath id="g"><use xlink:href="#f" overflow="visible"/></clipPath><g clip-path="url(#g)"><defs><path id="h" d="M-1071.2-367.2H776.1v774.7h-1847.3z"/></defs></g></g><path fill="#007FED" d="M17.7 3.8H6.3v2.7h11.5V3.8zm-1.4 7.1V13h-2.1v-2.1h2.1zm-3.3 0V13h-2v-2.1h2zm-3.3 0V13h-2v-2.1h2zm3.3 3V16h-2v-2.1h2zm-3.3 0V16h-2v-2.1h2zm6.6 0V19h-2.1v-5.1h2.1zm-3.3 3V19h-2v-2.1h2zm-3.3 0V19h-2v-2.1h2zm8-8.5H6.3v11.8h11.5V8.4zm.9-6.4c.5 0 .9.4.9.9v18.2c0 .5-.4.9-.9.9H5.4c-.5 0-.9-.4-.9-.9V2.9c0-.5.4-.9.9-.9h13.2z"/></svg>
