<svg version="1.0" xmlns="http://www.w3.org/2000/svg" xmlns:xlink="http://www.w3.org/1999/xlink" viewBox="0 0 24 24"><defs><path id="a" d="M-856.5-464.9h1978.7V365H-856.5z"/></defs><defs><path id="b" d="M-652.4-474.6h1714.1v718.9H-652.4z"/></defs><path fill="#007FED" d="M8 12.9c.4-.7.7-2.2 1.1-2.7.4-.5.8-1.5.6-2 0 0 .9 1.1 1.6.9.7-.2 2.2-1.3 2.4-1.1.2.2 2.1 4.3 2.3 5.6.2 1.3-.1 2.3-.1 2.3s-.7-.2-.8.2c-.1.4-.1 2-.1 2s-1 1.3-2.4 1.6c-1.5.2-2.2.1-2.2.1l-.8-1s.6-.1.6-.7c-.1-.6-2-1.5-2.3-2.4-.6-.8-.3-2.1.1-2.8zm2.3-8.1c.4 0 .8.5.8 1.1v.3c-.1 0-.2.1-.3.2l-.1.1c.1-.1.1-.3.1-.5-.1-.3-.3-.6-.5-.5-.2 0-.4.3-.3.7.1.3.3.6.5.5l-.3.3c-.4-.2-.6-.6-.6-1.1 0-.6.3-1.1.7-1.1zm1.2 1.8c.3 0 1 .4 1.2.5.3.1.6.3.5.4 0 .2-.2.2-.5.4-.4.2-1.1.7-1.4.7-.2 0-.4-.1-.7-.3-.3-.2-.8-.6-.6-.8 0 0 .4-.3.6-.5.2 0 .6-.4.9-.4zm1.3-2c.5 0 1 .5 1 1.2 0 .5-.2.9-.5 1.1-.1 0-.2-.1-.3-.1.2-.1.3-.3.3-.6 0-.4-.2-.7-.5-.7s-.5.3-.5.7c0 .1 0 .3.1.4-.2-.1-.3-.1-.4-.2-.1-.2-.1-.3-.1-.5-.1-.8.4-1.3.9-1.3zM5.5 20.9c1.1.1 2.2.8 3.2.9 1 .1 1.3-.7 1.3-.7s1.1-.3 2.3-.3c1.2 0 2.3.2 2.3.2s.2.5.6.7c.4.2 1.3.3 1.8-.3.6-.6 2-1.3 2.9-1.8.8-.5.7-1.2.2-1.4-.5-.2-1-.6-.9-1.2 0-.6-.5-1.1-.5-1.1s.4-1.4 0-2.6c-.4-1.2-1.7-3.1-2.8-4.5-1-1.4-.2-3.1-1.1-5.2-.9-2.1-3.3-2-4.6-1.1-1.3 1-.9 3.3-.8 4.3.1 1.1 0 1.8-.1 2.1-.1.3-1 1.3-1.5 2.1-.6.8-1 2.6-1.4 3.3-.4.7-.1 1.4-.1 1.4s-.3.1-.5.5c-.2.5-.6.7-1.4.8-.8.2-.8.7-.6 1.2.2.6 0 .9-.2 1.6-.3.8.8 1 1.9 1.1z"/><defs><path id="c" d="M-24.1 5.7L-32 2l-7.9 3.6V11c0 5 3.4 9.7 7.9 10.9 2-.5 3.8-1.7 5.1-3.4l-2.7-2.8c-1.7 1.2-4 1-5.5-.6-1.7-1.8-1.7-4.6 0-6.4 1.7-1.8 4.5-1.8 6.2 0 1.5 1.6 1.7 3.9.6 5.7l2.5 2.6c1.1-1.8 1.7-3.9 1.7-6V5.7z"/></defs><clipPath id="d"><use xlink:href="#c" overflow="visible"/></clipPath><g clip-path="url(#d)"><defs><path id="e" d="M-1027.2-323.2H820.1v774.7h-1847.3z"/></defs></g><g><defs><ellipse id="f" cx="-32" cy="12" rx="2.6" ry="2.7"/></defs><clipPath id="g"><use xlink:href="#f" overflow="visible"/></clipPath><g clip-path="url(#g)"><defs><path id="h" d="M-1027.2-323.2H820.1v774.7h-1847.3z"/></defs></g></g></svg>
