<svg version="1.0" xmlns="http://www.w3.org/2000/svg" xmlns:xlink="http://www.w3.org/1999/xlink" viewBox="0 0 24 24"><path fill="#007FED" d="M17.5 18.5c-.8 0-1.4-.7-1.4-1.5s.6-1.5 1.4-1.5c.8 0 1.4.7 1.4 1.5-.1.8-.7 1.5-1.4 1.5zm1.3-9l1.8 2.5h-4.1V9.5h2.3zm-12.3 9c-.8 0-1.4-.7-1.4-1.5s.6-1.5 1.4-1.5c.8 0 1.4.7 1.4 1.5s-.6 1.5-1.4 1.5zM19.3 8h-2.7V4H3.8C2.8 4 2 4.9 2 6v11h1.8c0 1.7 1.2 3 2.7 3s2.7-1.3 2.7-3h5.5c0 1.7 1.2 3 2.7 3s2.7-1.3 2.7-3H22v-5l-2.7-4z"/><defs><path id="a" d="M-724.5-376.9h1978.7V453H-724.5z"/></defs><defs><path id="b" d="M-520.4-386.6h1714.1v718.9H-520.4z"/></defs><defs><path id="c" d="M107.9 93.7L100 90l-7.9 3.6V99c0 5 3.4 9.7 7.9 10.9 2-.5 3.8-1.7 5.1-3.4l-2.7-2.8c-1.7 1.2-4 1-5.5-.6-1.7-1.8-1.7-4.6 0-6.4 1.7-1.8 4.5-1.8 6.2 0 1.5 1.6 1.7 3.9.6 5.7l2.5 2.6c1.1-1.8 1.7-3.9 1.7-6v-5.3z"/></defs><clipPath id="d"><use xlink:href="#c" overflow="visible"/></clipPath><g clip-path="url(#d)"><defs><path id="e" d="M-895.2-235.2H952.1v774.7H-895.2z"/></defs></g><g><defs><ellipse id="f" cx="100" cy="100" rx="2.6" ry="2.7"/></defs><clipPath id="g"><use xlink:href="#f" overflow="visible"/></clipPath><g clip-path="url(#g)"><defs><path id="h" d="M-895.2-235.2H952.1v774.7H-895.2z"/></defs></g></g></svg>
