<svg version="1.0" xmlns="http://www.w3.org/2000/svg" xmlns:xlink="http://www.w3.org/1999/xlink" viewBox="0 0 24 24"><defs><path id="a" d="M-680.5-420.9h1978.7V409H-680.5z"/></defs><defs><path id="b" d="M-476.4-430.6h1714.1v718.9H-476.4z"/></defs><path fill-rule="evenodd" clip-rule="evenodd" fill="#007FED" d="M22 16.6l-3.9 3.9-1.3-1.3 2.6-2.6-2.6-2.6 1.3-1.3 3.9 3.9zm-9.6-7V7h-1.7v2.6H8.1v1.8h2.6V14h1.7v-2.6H15V9.6h-2.6zm7-6.2H3.8c-1 0-1.8.8-1.8 1.8v10.5c0 1 .8 1.8 1.7 1.8H8v1.8h7v-1.8h1.7v-1.8h-13V5.2h15.6v7H21v-7c.1-1-.7-1.8-1.6-1.8z"/><defs><path id="c" d="M151.9 49.7L144 46l-7.9 3.6V55c0 5 3.4 9.7 7.9 10.9 2-.5 3.8-1.7 5.1-3.4l-2.7-2.8c-1.7 1.2-4 1-5.5-.6-1.7-1.8-1.7-4.6 0-6.4 1.7-1.8 4.5-1.8 6.2 0 1.5 1.6 1.7 3.9.6 5.7l2.5 2.6c1.1-1.8 1.7-3.9 1.7-6v-5.3z"/></defs><clipPath id="d"><use xlink:href="#c" overflow="visible"/></clipPath><g clip-path="url(#d)"><defs><path id="e" d="M-851.2-279.2H996.1v774.7H-851.2z"/></defs></g><g><defs><ellipse id="f" cx="144" cy="56" rx="2.6" ry="2.7"/></defs><clipPath id="g"><use xlink:href="#f" overflow="visible"/></clipPath><g clip-path="url(#g)"><defs><path id="h" d="M-851.2-279.2H996.1v774.7H-851.2z"/></defs></g></g></svg>
