<svg version="1.0" xmlns="http://www.w3.org/2000/svg" xmlns:xlink="http://www.w3.org/1999/xlink" viewBox="0 0 24 24"><path fill="#007FED" d="M6.9 7c-.6 0-1 .1-1.2.1v4.1c.2 0 .5.1.9.1 1.7 0 2.7-.8 2.7-2.3 0-1.2-.9-2-2.4-2zm-.2-3c2.1 0 3.6.4 4.6 1.3C12.4 6.1 13 7.5 13 9s-.5 2.9-1.4 3.8c-1.1 1.1-2.8 1.7-4.9 1.7h-.9v5.2c0 .1-.1.2-.2.2H2.2c-.1 0-.2-.1-.2-.2v-15c0-.1.1-.2.2-.2C3.4 4.1 4.9 4 6.7 4zm11.6 4.1c1.4 0 2.5.3 3.1.7.1 0 .1.1.1.2l-.6 2.4c0 .1-.1.1-.1.1h-.2c-.5-.3-1.4-.6-2.2-.6-.4 0-1.1.1-1.1.7 0 .3.2.6 1.6 1.1 2.1.7 3 1.9 3 3.6 0 2.3-1.8 3.8-4.8 3.8-1.4 0-2.6-.3-3.5-.8-.1 0-.1-.1-.1-.2l.6-2.5c0-.1.1-.1.1-.1h.2c.6.4 1.8.8 2.8.8 1.2 0 1.2-.5 1.2-.7 0-.4-.1-.6-1.4-1.1-2.7-.9-3.2-2.4-3.2-3.5 0-2.4 1.8-3.9 4.5-3.9z"/><defs><path id="a" d="M-988.5-332.9H990.2V497H-988.5z"/></defs><defs><path id="b" d="M-784.4-342.6H929.7v718.9H-784.4z"/></defs><defs><path id="c" d="M-156.1 137.7l-7.9-3.6-7.9 3.6v5.4c0 5 3.4 9.7 7.9 10.9 2-.5 3.8-1.7 5.1-3.4l-2.7-2.8c-1.7 1.2-4 1-5.5-.6-1.7-1.8-1.7-4.6 0-6.4 1.7-1.8 4.5-1.8 6.2 0 1.5 1.6 1.7 3.9.6 5.7l2.5 2.6c1.1-1.8 1.7-3.9 1.7-6v-5.4z"/></defs><clipPath id="d"><use xlink:href="#c" overflow="visible"/></clipPath><g clip-path="url(#d)"><defs><path id="e" d="M-1159.2-191.2H688.1v774.7h-1847.3z"/></defs></g><g><defs><ellipse id="f" cx="-164" cy="144" rx="2.6" ry="2.7"/></defs><clipPath id="g"><use xlink:href="#f" overflow="visible"/></clipPath><g clip-path="url(#g)"><defs><path id="h" d="M-1159.2-191.2H688.1v774.7h-1847.3z"/></defs></g></g></svg>
