<svg version="1.0" xmlns="http://www.w3.org/2000/svg" xmlns:xlink="http://www.w3.org/1999/xlink" viewBox="0 0 24 24"><defs><path id="a" d="M-680.5-464.9h1978.7V365H-680.5z"/></defs><defs><path id="b" d="M-476.4-474.6h1714.1v718.9H-476.4z"/></defs><defs><path id="c" d="M151.9 5.7L144 2l-7.9 3.6V11c0 5 3.4 9.7 7.9 10.9 2-.5 3.8-1.7 5.1-3.4l-2.7-2.8c-1.7 1.2-4 1-5.5-.6-1.7-1.8-1.7-4.6 0-6.4 1.7-1.8 4.5-1.8 6.2 0 1.5 1.6 1.7 3.9.6 5.7l2.5 2.6c1.1-1.8 1.7-3.9 1.7-6V5.7z"/></defs><clipPath id="d"><use xlink:href="#c" overflow="visible"/></clipPath><g clip-path="url(#d)"><defs><path id="e" d="M-851.2-323.2H996.1v774.7H-851.2z"/></defs></g><g><defs><ellipse id="f" cx="144" cy="12" rx="2.6" ry="2.7"/></defs><clipPath id="g"><use xlink:href="#f" overflow="visible"/></clipPath><g clip-path="url(#g)"><defs><path id="h" d="M-851.2-323.2H996.1v774.7H-851.2z"/></defs></g></g><g><defs><path id="i" d="M1.2 1.2h21.5v21.5H1.2z"/></defs><clipPath id="j"><use xlink:href="#i" overflow="visible"/></clipPath><g clip-path="url(#j)"><defs><path id="k" d="M20.8 7.2c0 .3.1.7.1 1 0 1.8-.2 1.9-3.8 12.4 3.1-1.8 5-5.1 5-8.6-.1-1.7-.5-3.3-1.3-4.8zm-8.6 5.7l-3 8.7c2 .6 4.2.5 6.1-.2l-.1-.1-3-8.4zm6.5-1.4c0-1.2-.4-2.1-.8-2.8-.5-.8-1-1.5-1-2.3 0-.9.7-1.8 1.7-1.8h.1C16.9 2.9 14.5 2 12 2 8.6 2 5.5 3.7 3.7 6.5c.6 0 1.5 0 3.3-.1.5 0 .6.8.1.8 0 0-.5.1-1.1.1l3.6 10.8 2.2-6.6-1.6-4.3c-.5 0-1-.1-1-.1-.5 0-.5-.9.1-.8 2.1.2 3.1.2 5.3 0 .5 0 .6.8.1.8 0 0-.5.1-1.1.1L17 18.1c1.4-4.8 1.7-5.6 1.7-6.6zM2 12c0 4 2.3 7.4 5.6 9L2.8 8c-.5 1.2-.8 2.6-.8 4z"/></defs><clipPath id="l"><use xlink:href="#k" overflow="visible"/></clipPath><g clip-path="url(#l)"><defs><path id="m" d="M2 2h20v20H2z"/></defs><clipPath id="n"><use xlink:href="#m" overflow="visible"/></clipPath><path clip-path="url(#n)" fill="#007FED" d="M-1.8-1.8h27.6v27.6H-1.8z"/></g></g></g></svg>
