<svg version="1.0" xmlns="http://www.w3.org/2000/svg" xmlns:xlink="http://www.w3.org/1999/xlink" viewBox="0 0 24 24"><path fill="#007FED" d="M16.4 14c.1-.7.1-1.3.1-2s-.1-1.3-.1-2h3.4c.2.6.3 1.3.3 2s-.1 1.4-.3 2h-3.4zm-1.8 5.6c.6-1.1 1.1-2.3 1.4-3.6h3c-1 1.7-2.6 2.9-4.4 3.6zm-.3-5.6H9.7c-.1-.7-.2-1.3-.2-2s.1-1.4.2-2h4.7c.1.7.2 1.3.2 2-.1.7-.2 1.3-.3 2zM12 20c-.8-1.2-1.5-2.5-1.9-4h3.8c-.4 1.4-1.1 2.8-1.9 4zM8 8H5c1-1.7 2.5-2.9 4.3-3.6C8.8 5.5 8.3 6.7 8 8zm-2.9 8h3c.3 1.3.8 2.5 1.4 3.6-1.9-.7-3.5-1.9-4.4-3.6zm-.8-2c-.2-.6-.3-1.3-.3-2s.1-1.4.3-2h3.4c-.1.7-.1 1.3-.1 2s.1 1.3.1 2H4.3zM12 4c.8 1.2 1.5 2.5 1.9 4h-3.8c.4-1.4 1.1-2.8 1.9-4zm6.9 4h-3c-.3-1.3-.8-2.5-1.4-3.6 1.9.7 3.5 1.9 4.4 3.6zM12 2C6.5 2 2 6.5 2 12s4.5 10 10 10 10-4.5 10-10S17.5 2 12 2z"/><defs><path id="a" d="M-1076.5-376.9H902.2V453h-1978.7z"/></defs><defs><path id="b" d="M-872.4-386.6H841.7v718.9H-872.4z"/></defs><defs><path id="c" d="M-244.1 93.7L-252 90l-7.9 3.6V99c0 5 3.4 9.7 7.9 10.9 2-.5 3.8-1.7 5.1-3.4l-2.7-2.8c-1.7 1.2-4 1-5.5-.6-1.7-1.8-1.7-4.6 0-6.4 1.7-1.8 4.5-1.8 6.2 0 1.5 1.6 1.7 3.9.6 5.7l2.5 2.6c1.1-1.8 1.7-3.9 1.7-6v-5.3z"/></defs><clipPath id="d"><use xlink:href="#c" overflow="visible"/></clipPath><g clip-path="url(#d)"><defs><path id="e" d="M-1247.2-235.2H600.1v774.7h-1847.3z"/></defs></g><g><defs><ellipse id="f" cx="-252" cy="100" rx="2.6" ry="2.7"/></defs><clipPath id="g"><use xlink:href="#f" overflow="visible"/></clipPath><g clip-path="url(#g)"><defs><path id="h" d="M-1247.2-235.2H600.1v774.7h-1847.3z"/></defs></g></g></svg>
