<svg version="1.0" xmlns="http://www.w3.org/2000/svg" xmlns:xlink="http://www.w3.org/1999/xlink" viewBox="0 0 24 24"><defs><path id="a" d="M-856.5-508.9h1978.7V321H-856.5z"/></defs><defs><path id="b" d="M-652.4-518.6h1714.1v718.9H-652.4z"/></defs><defs><path id="c" d="M-24.1-38.3L-32-42l-7.9 3.6v5.4c0 5 3.4 9.7 7.9 10.9 2-.5 3.8-1.7 5.1-3.4l-2.7-2.8c-1.7 1.2-4 1-5.5-.6-1.7-1.8-1.7-4.6 0-6.4 1.7-1.8 4.5-1.8 6.2 0 1.5 1.6 1.7 3.9.6 5.7l2.5 2.6c1.1-1.8 1.7-3.9 1.7-6v-5.3z"/></defs><clipPath id="d"><use xlink:href="#c" overflow="visible"/></clipPath><g clip-path="url(#d)"><defs><path id="e" d="M-1027.2-367.2H820.1v774.7h-1847.3z"/></defs></g><g><defs><ellipse id="f" cx="-32" cy="-32" rx="2.6" ry="2.7"/></defs><clipPath id="g"><use xlink:href="#f" overflow="visible"/></clipPath><g clip-path="url(#g)"><defs><path id="h" d="M-1027.2-367.2H820.1v774.7h-1847.3z"/></defs></g></g><path fill-rule="evenodd" clip-rule="evenodd" fill="#007FED" d="M18 20H6V4h1v9l3-2.2 3 2.2V4h5v16zM9 4h2v5l-1-.7L9 9V4zm9-2H6c-1.1 0-2 .9-2 2v16c0 1.1.9 2 2 2h12c1.1 0 2-.9 2-2V4c0-1.1-.9-2-2-2z"/></svg>
