<svg version="1.0" xmlns="http://www.w3.org/2000/svg" xmlns:xlink="http://www.w3.org/1999/xlink" viewBox="0 0 24 24"><defs><path id="a" d="M-900.5-420.9h1978.7V409H-900.5z"/></defs><path fill-rule="evenodd" clip-rule="evenodd" fill="#007FED" d="M12 4.7l6 4.7-6 4.6-6-4.7 6-4.6zm0 12l7.7-6 1.7-1.3L12 2 2.6 9.3l1.7 1.3 7.7 6.1zm0 2.6l-7.7-6-1.7 1.3L12 22l9.4-7.3-1.7-1.3-7.7 5.9z"/><defs><path id="b" d="M-696.4-430.6h1714.1v718.9H-696.4z"/></defs><defs><path id="c" d="M-68.1 49.7L-76 46l-7.9 3.6V55c0 5 3.4 9.7 7.9 10.9 2-.5 3.8-1.7 5.1-3.4l-2.7-2.8c-1.7 1.2-4 1-5.5-.6-1.7-1.8-1.7-4.6 0-6.4 1.7-1.8 4.5-1.8 6.2 0 1.5 1.6 1.7 3.9.6 5.7l2.5 2.6c1.1-1.8 1.7-3.9 1.7-6v-5.3z"/></defs><clipPath id="d"><use xlink:href="#c" overflow="visible"/></clipPath><g clip-path="url(#d)"><defs><path id="e" d="M-1071.2-279.2H776.1v774.7h-1847.3z"/></defs></g><g><defs><ellipse id="f" cx="-76" cy="56" rx="2.6" ry="2.7"/></defs><clipPath id="g"><use xlink:href="#f" overflow="visible"/></clipPath><g clip-path="url(#g)"><defs><path id="h" d="M-1071.2-279.2H776.1v774.7h-1847.3z"/></defs></g></g></svg>
