<svg version="1.0" xmlns="http://www.w3.org/2000/svg" xmlns:xlink="http://www.w3.org/1999/xlink" viewBox="0 0 24 24"><defs><path id="a" d="M-1076.5-464.9H902.2V365h-1978.7z"/></defs><defs><path id="b" d="M-872.4-474.6H841.7v718.9H-872.4z"/></defs><path fill="#007FED" d="M19 10h-2V8h2v2zm0 3h-2v-2h2v2zm-3-3h-2V8h2v2zm0 3h-2v-2h2v2zm0 4H8v-2h8v2zm-9-7H5V8h2v2zm0 3H5v-2h2v2zm1-2h2v2H8v-2zm0-3h2v2H8V8zm3 3h2v2h-2v-2zm0-3h2v2h-2V8zm9-3H4c-1.1 0-2 .9-2 2v10c0 1.1.9 2 2 2h16c1.1 0 2-.9 2-2V7c0-1.1-.9-2-2-2z"/><defs><path id="c" d="M-244.1 5.7L-252 2l-7.9 3.6V11c0 5 3.4 9.7 7.9 10.9 2-.5 3.8-1.7 5.1-3.4l-2.7-2.8c-1.7 1.2-4 1-5.5-.6-1.7-1.8-1.7-4.6 0-6.4 1.7-1.8 4.5-1.8 6.2 0 1.5 1.6 1.7 3.9.6 5.7l2.5 2.6c1.1-1.8 1.7-3.9 1.7-6V5.7z"/></defs><clipPath id="d"><use xlink:href="#c" overflow="visible"/></clipPath><g clip-path="url(#d)"><defs><path id="e" d="M-1247.2-323.2H600.1v774.7h-1847.3z"/></defs></g><g><defs><ellipse id="f" cx="-252" cy="12" rx="2.6" ry="2.7"/></defs><clipPath id="g"><use xlink:href="#f" overflow="visible"/></clipPath><g clip-path="url(#g)"><defs><path id="h" d="M-1247.2-323.2H600.1v774.7h-1847.3z"/></defs></g></g></svg>
