<svg version="1.0" xmlns="http://www.w3.org/2000/svg" xmlns:xlink="http://www.w3.org/1999/xlink" viewBox="0 0 24 24"><defs><path id="a" d="M-944.5-464.9h1978.7V365H-944.5z"/></defs><defs><path id="b" d="M-740.4-474.6H973.7v718.9H-740.4z"/></defs><path fill="#007FED" d="M5.4 9.2c-.4 0-.8.1-1 .3-.2.2-.3.4-.3.7 0 .3.1.5.2.7.2.2.4.2.7.2.2 0 .4 0 .7-.1.2-.1.4-.2.6-.4.1-.1.2-.3.2-.4 0-.2.1-.3.1-.6v-.2c-.2 0-.4-.1-.6-.1-.2 0-.4-.1-.6-.1zm3.7-3c.1 0 .2 0 .3.1.1 0 .1.1.1.2l1.1 4.2 1-4.2c0-.1.1-.2.1-.2.1 0 .1-.1.3-.1h.5c.1 0 .2 0 .3.1.1 0 .1.1.1.2l1 4.3L15 6.5c0-.1.1-.2.1-.2.1 0 .1-.1.3-.1h.6c.1 0 .2.1.2.2V6.7l-1.6 4.9c0 .1-.1.2-.1.2-.1 0-.1.1-.2.1h-.6c-.1 0-.2 0-.3-.1-.1 0-.1-.1-.1-.3l-1-4.1-1 4.1c0 .1-.1.2-.1.3-.1 0-.1.1-.3.1h-.6c-.1 0-.2 0-.2-.1-.1 0-.1-.1-.1-.2l-1.6-5c0-.1-.1-.2-.1-.3 0-.1.1-.2.2-.2h.6zM5.5 6c.8 0 1.3.2 1.7.5.4.3.5.9.5 1.6v2.1c0 .2 0 .4.1.6 0 .1.1.2.2.4v.1c0 .1 0 .1-.1.2l-.4.3c-.1 0-.1.1-.2.1s-.1 0-.2-.1-.2-.2-.2-.3c-.1-.1-.1-.2-.2-.4-.5.6-1.1.9-1.9.9-.5 0-1-.2-1.3-.5-.3-.3-.5-.7-.5-1.2s.2-1 .6-1.3c.4-.4.9-.5 1.6-.5.2 0 .4 0 .7.1.2 0 .5.1.7.1v-.5c0-.5-.1-.8-.3-1-.2-.2-.5-.3-1-.3-.3 0-.5 0-.7.1-.3 0-.5.1-.7.2-.1 0-.2.1-.2.1h-.1c-.1 0-.1-.1-.1-.2v-.3-.2s.1-.1.2-.1c.2-.1.5-.2.8-.3.3-.1.6-.2 1-.2zm13.4 0h.4c.1 0 .3 0 .4.1.1 0 .3.1.4.1.1 0 .2.1.3.1.1.1.2.1.2.2s.1.1.1.2V7c0 .1-.1.2-.1.2-.1 0-.1 0-.2-.1-.5-.1-.9-.2-1.4-.2-.4 0-.7.1-.9.2-.2.1-.3.3-.3.6 0 .2.1.3.2.5.1.1.4.2.7.4l.9.3c.5.1.8.4 1 .6.2.3.3.6.3.9 0 .3-.1.5-.2.7-.1.2-.3.4-.5.6-.2.2-.4.3-.7.4-.2-.1-.5-.1-.8-.1-.3 0-.7 0-1-.1-.3-.1-.6-.2-.7-.3-.1-.1-.2-.1-.2-.2v-.5c0-.1.1-.2.1-.2h.1s.1 0 .2.1c.2.1.5.2.7.2.3.1.5.1.8.1.4 0 .7-.1 1-.2.2-.1.3-.3.3-.6 0-.2-.1-.3-.2-.4-.1-.1-.3-.2-.7-.3l-.9-.3c-.5-.1-.8-.4-1-.6-.2-.3-.3-.6-.3-.9 0-.3.1-.5.2-.7.1-.2.3-.4.5-.5.2-.1.4-.3.7-.3 0-.3.3-.3.6-.3zm3 7.3c.3.3-.1 2.5-1.3 3.6-.2.2-.4.1-.3-.1.3-.7.9-2.3.6-2.7-.3-.4-2-.2-2.7-.1-.2 0-.3-.2-.1-.3 1.4-1 3.5-.7 3.8-.4zM2.3 14c2.8 1.6 6.2 2.6 9.8 2.6 2.4 0 5-.5 7.4-1.5.4-.2.7.2.3.5-2.2 1.6-5.3 2.4-8 2.4-3.8 0-7.2-1.4-9.7-3.7-.2-.2 0-.4.2-.3z"/><defs><path id="c" d="M-112.1 5.7L-120 2l-7.9 3.6V11c0 5 3.4 9.7 7.9 10.9 2-.5 3.8-1.7 5.1-3.4l-2.7-2.8c-1.7 1.2-4 1-5.5-.6-1.7-1.8-1.7-4.6 0-6.4 1.7-1.8 4.5-1.8 6.2 0 1.5 1.6 1.7 3.9.6 5.7l2.5 2.6c1.1-1.8 1.7-3.9 1.7-6V5.7z"/></defs><clipPath id="d"><use xlink:href="#c" overflow="visible"/></clipPath><g clip-path="url(#d)"><defs><path id="e" d="M-1115.2-323.2H732.1v774.7h-1847.3z"/></defs></g><g><defs><ellipse id="f" cx="-120" cy="12" rx="2.6" ry="2.7"/></defs><clipPath id="g"><use xlink:href="#f" overflow="visible"/></clipPath><g clip-path="url(#g)"><defs><path id="h" d="M-1115.2-323.2H732.1v774.7h-1847.3z"/></defs></g></g></svg>
