<svg version="1.0" xmlns="http://www.w3.org/2000/svg" xmlns:xlink="http://www.w3.org/1999/xlink" viewBox="0 0 24 24"><defs><path id="a" d="M-856.5-420.9h1978.7V409H-856.5z"/></defs><path fill-rule="evenodd" clip-rule="evenodd" fill="#007FED" d="M10.3 13.7H2V22h8.3v-8.3zm10.3 0h-8.3V22h8.3v-8.3zM10.3 3.4H2v8.3h8.3V3.4zM16.1 2l-5.9 5.8 5.9 5.9L22 7.9 16.1 2zM8.2 15.8v4.1H4.1v-4.1h4.1zm10.4 0v4.1h-4.1v-4.1h4.1zM8.2 5.4v4.1H4.1V5.4h4.1zm7.9-.5L19 7.8l-2.9 2.9-2.9-2.9 2.9-2.9z"/><defs><path id="b" d="M-652.4-430.6h1714.1v718.9H-652.4z"/></defs><defs><path id="c" d="M-24.1 49.7L-32 46l-7.9 3.6V55c0 5 3.4 9.7 7.9 10.9 2-.5 3.8-1.7 5.1-3.4l-2.7-2.8c-1.7 1.2-4 1-5.5-.6-1.7-1.8-1.7-4.6 0-6.4 1.7-1.8 4.5-1.8 6.2 0 1.5 1.6 1.7 3.9.6 5.7l2.5 2.6c1.1-1.8 1.7-3.9 1.7-6v-5.3z"/></defs><clipPath id="d"><use xlink:href="#c" overflow="visible"/></clipPath><g clip-path="url(#d)"><defs><path id="e" d="M-1027.2-279.2H820.1v774.7h-1847.3z"/></defs></g><g><defs><ellipse id="f" cx="-32" cy="56" rx="2.6" ry="2.7"/></defs><clipPath id="g"><use xlink:href="#f" overflow="visible"/></clipPath><g clip-path="url(#g)"><defs><path id="h" d="M-1027.2-279.2H820.1v774.7h-1847.3z"/></defs></g></g></svg>
