<svg version="1.0" xmlns="http://www.w3.org/2000/svg" xmlns:xlink="http://www.w3.org/1999/xlink" viewBox="0 0 24 24"><path fill="#007FED" d="M14.5 6.5h-1v-1h1v1zm-4 0h-1v-1h1v1zM15 3.8l1-1.1c.2-.2.2-.4 0-.6-.2-.2-.4-.2-.6 0l-1.2 1.3c-.7-.4-1.4-.6-2.2-.6-.8 0-1.6.2-2.2.5L8.5 2.1c-.2-.2-.4-.2-.6 0-.2.2-.2.4 0 .6L9 3.8C7.8 4.8 7 6.3 7 8h10c0-1.7-.8-3.2-2-4.2zm4.3 4.7c-.7 0-1.3.6-1.3 1.3v6c0 .7.6 1.3 1.3 1.3.7 0 1.3-.6 1.3-1.3v-6c-.1-.7-.6-1.3-1.3-1.3zm-14.6 0c-.7 0-1.2.6-1.2 1.3v6c0 .6.5 1.2 1.2 1.2S6 16.4 6 15.7v-6c0-.6-.6-1.2-1.3-1.2zM7 17c0 .5.4.8.8.8h.8v3c0 .7.6 1.3 1.3 1.3.7 0 1.3-.6 1.3-1.3v-3h1.7v3c0 .7.6 1.3 1.3 1.3.7 0 1.3-.6 1.3-1.3v-3h.8c.5 0 .8-.4.8-.8V8.5H7V17z"/><defs><path id="a" d="M-768.5-332.9h1978.7V497H-768.5z"/></defs><defs><path id="b" d="M-564.4-342.6h1714.1v718.9H-564.4z"/></defs><defs><path id="c" d="M63.9 137.7L56 134l-7.9 3.6v5.4c0 5 3.4 9.7 7.9 10.9 2-.5 3.8-1.7 5.1-3.4l-2.7-2.8c-1.7 1.2-4 1-5.5-.6-1.7-1.8-1.7-4.6 0-6.4 1.7-1.8 4.5-1.8 6.2 0 1.5 1.6 1.7 3.9.6 5.7l2.5 2.6c1.1-1.8 1.7-3.9 1.7-6v-5.3z"/></defs><clipPath id="d"><use xlink:href="#c" overflow="visible"/></clipPath><g clip-path="url(#d)"><defs><path id="e" d="M-939.2-191.2H908.1v774.7H-939.2z"/></defs></g><g><defs><ellipse id="f" cx="56" cy="144" rx="2.6" ry="2.7"/></defs><clipPath id="g"><use xlink:href="#f" overflow="visible"/></clipPath><g clip-path="url(#g)"><defs><path id="h" d="M-939.2-191.2H908.1v774.7H-939.2z"/></defs></g></g></svg>
