<svg version="1.0" xmlns="http://www.w3.org/2000/svg" xmlns:xlink="http://www.w3.org/1999/xlink" viewBox="0 0 24 24"><defs><path id="a" d="M1.7 4.8h20.6v14.4H1.7z"/></defs><clipPath id="b"><use xlink:href="#a" overflow="visible"/></clipPath><g clip-path="url(#b)"><defs><path id="c" d="M22.3 14.6c-.1-.1-.1-.1-.1-.2l-.2-.8c-.5-2-1-4.2-1.4-6.2-.3-1.2-1.3-2-2.5-1.9-.7.1-.7.5-.7.7 0 .2.1.6.7.6.7 0 1 .3 1.2.9.2.7.3 1.4.5 2.2.2.9.4 1.7.6 2.6.1.5.2.9.3 1.4l.1.4h-.3s-.1-.2-.1-.4c-.5-1.7-2.1-2.8-3.8-2.8-1.7 0-3.3 1.1-3.8 2.7-.1.3-.2.5-.2.5h-.5c0-.1 0-.1-.1-.2-.5-1.8-2-3-3.9-3-1.7 0-3.3 1.1-3.9 2.9 0 .1-.1.4-.1.4h-.3l.3-1.5c.4-1.9.8-3.7 1.2-5.4.2-.5.6-.8 1.1-.7.5 0 .8-.2.8-.6 0-.2 0-.4-.1-.5-.2-.2-.5-.2-.6-.2-1.2-.1-2.2.7-2.5 1.8-.5 2.2-1 4.5-1.5 6.6l-.1.5c-.1.4-.1.7 0 .9.2.2.4.3.8.3h.7c.5 2.3 1.8 3.5 3.8 3.6h.2c.8 0 1.6-.2 2.3-.7 1-.7 1.5-1.7 1.7-2.9h.4c.7 2.5 2 3.6 4 3.6.9 0 1.7-.3 2.5-.9.9-.7 1.4-1.6 1.5-2.8H21.1c.4 0 .7-.1.9-.4V15l.3-.4zm-3 .3c0 .7-.3 1.4-.8 2-.5.5-1.2.8-2 .8-1.5 0-2.8-1.3-2.8-2.8 0-1.5 1.2-2.8 2.7-2.8 1.7 0 2.9 1.3 2.9 2.8zM8.1 12.1c1.5 0 2.8 1.3 2.8 2.8 0 1.5-1.2 2.8-2.8 2.8-.7 0-1.4-.3-2-.8-.5-.5-.8-1.2-.8-2 0-1.5 1.2-2.8 2.8-2.8z"/></defs><clipPath id="d"><use xlink:href="#c" overflow="visible"/></clipPath><g clip-path="url(#d)"><defs><path id="e" d="M2.3 5.4h20v13.7h-20z"/></defs><clipPath id="f"><use xlink:href="#e" overflow="visible"/></clipPath><path clip-path="url(#f)" fill="#007FED" d="M-.8 2.3h26.2v20H-.8z"/></g></g></svg>
