<svg version="1.0" xmlns="http://www.w3.org/2000/svg" xmlns:xlink="http://www.w3.org/1999/xlink" viewBox="0 0 24 24"><path fill="#007FED" d="M20.2 3H3.8C2.8 3 2 3.8 2 4.8v10.8c0 1 .8 1.8 1.8 1.8h6.4l-1.8 2.7v.9h7.3v-.9l-1.8-2.7h6.4c1 0 1.8-.8 1.8-1.8V4.8c-.1-1-.9-1.8-1.9-1.8zM20 14H4V5h16v9z"/><defs><path id="a" d="M-680.5-332.9h1978.7V497H-680.5z"/></defs><defs><path id="b" d="M-476.4-342.6h1714.1v718.9H-476.4z"/></defs><defs><path id="c" d="M151.9 137.7L144 134l-7.9 3.6v5.4c0 5 3.4 9.7 7.9 10.9 2-.5 3.8-1.7 5.1-3.4l-2.7-2.8c-1.7 1.2-4 1-5.5-.6-1.7-1.8-1.7-4.6 0-6.4 1.7-1.8 4.5-1.8 6.2 0 1.5 1.6 1.7 3.9.6 5.7l2.5 2.6c1.1-1.8 1.7-3.9 1.7-6v-5.3z"/></defs><clipPath id="d"><use xlink:href="#c" overflow="visible"/></clipPath><g clip-path="url(#d)"><defs><path id="e" d="M-851.2-191.2H996.1v774.7H-851.2z"/></defs></g><g><defs><ellipse id="f" cx="144" cy="144" rx="2.6" ry="2.7"/></defs><clipPath id="g"><use xlink:href="#f" overflow="visible"/></clipPath><g clip-path="url(#g)"><defs><path id="h" d="M-851.2-191.2H996.1v774.7H-851.2z"/></defs></g></g></svg>
