<svg version="1.0" xmlns="http://www.w3.org/2000/svg" xmlns:xlink="http://www.w3.org/1999/xlink" viewBox="0 0 24 24"><defs><path id="a" d="M-1032.5-508.9H946.2V321h-1978.7z"/></defs><defs><path id="b" d="M-828.4-518.6H885.7v718.9H-828.4z"/></defs><defs><path id="c" d="M-200.1-38.3L-208-42l-7.9 3.6v5.4c0 5 3.4 9.7 7.9 10.9 2-.5 3.8-1.7 5.1-3.4l-2.7-2.8c-1.7 1.2-4 1-5.5-.6-1.7-1.8-1.7-4.6 0-6.4 1.7-1.8 4.5-1.8 6.2 0 1.5 1.6 1.7 3.9.6 5.7l2.5 2.6c1.1-1.8 1.7-3.9 1.7-6v-5.3z"/></defs><clipPath id="d"><use xlink:href="#c" overflow="visible"/></clipPath><g clip-path="url(#d)"><defs><path id="e" d="M-1203.2-367.2H644.1v774.7h-1847.3z"/></defs></g><g><defs><ellipse id="f" cx="-208" cy="-32" rx="2.6" ry="2.7"/></defs><clipPath id="g"><use xlink:href="#f" overflow="visible"/></clipPath><g clip-path="url(#g)"><defs><path id="h" d="M-1203.2-367.2H644.1v774.7h-1847.3z"/></defs></g></g><path fill="#007FED" d="M12 2l9 4.8-9 4.8-9-4.8L12 2zm9 6.7v8.9L13 22v-8.9l8-4.4zm-18 0l8 4.4V22l-8-4.4V8.7z"/></svg>
