<svg version="1.0" xmlns="http://www.w3.org/2000/svg" xmlns:xlink="http://www.w3.org/1999/xlink" viewBox="0 0 24 24"><path fill="#007FED" d="M20 9.9h-2.1v-3H20v3zm-.2-5.6H2v11c0 2.4 2 4.4 4.4 4.4h6.7c2.5 0 4.4-2 4.4-4.4V12h2.2C21 12 22 11 22 9.8V6.5c0-1.2-1-2.2-2.2-2.2z"/><defs><path id="a" d="M-812.5-420.9h1978.7V409H-812.5z"/></defs><defs><path id="b" d="M-608.4-430.6h1714.1v718.9H-608.4z"/></defs><defs><path id="c" d="M19.9 49.7L12 46l-7.9 3.6V55c0 5 3.4 9.7 7.9 10.9 2-.5 3.8-1.7 5.1-3.4l-2.7-2.8c-1.7 1.2-4 1-5.5-.6-1.7-1.8-1.7-4.6 0-6.4 1.7-1.8 4.5-1.8 6.2 0 1.5 1.6 1.7 3.9.6 5.7l2.5 2.6c1.1-1.8 1.7-3.9 1.7-6v-5.3z"/></defs><clipPath id="d"><use xlink:href="#c" overflow="visible"/></clipPath><g clip-path="url(#d)"><defs><path id="e" d="M-983.2-279.2H864.1v774.7H-983.2z"/></defs></g><g><defs><ellipse id="f" cx="12" cy="56" rx="2.6" ry="2.7"/></defs><clipPath id="g"><use xlink:href="#f" overflow="visible"/></clipPath><g clip-path="url(#g)"><defs><path id="h" d="M-983.2-279.2H864.1v774.7H-983.2z"/></defs></g></g></svg>
