<svg version="1.0" xmlns="http://www.w3.org/2000/svg" xmlns:xlink="http://www.w3.org/1999/xlink" viewBox="0 0 24 24"><path fill-rule="evenodd" clip-rule="evenodd" fill="#007FED" d="M12 6.1h5.3v.3l-.1 1.1v.3H8.6V8l.2 2.2v.2H17v.3l-.5 5.7v.2L12 17.8l-4.4-1.2-.3-3h1.8l.1 1.5v.1h.1l2.5.6h.4l2.3-.6h.1v-.1l.3-2.8v-.2H7.2l-.5-5.7v-.3H12zm7.5 13.7l1.6-17.5v-.2H2.8v.2l1.6 17.5v.1h.1l7.3 1.9h.2l7.3-2h.2z"/><defs><path id="a" d="M-1076.5-420.9H902.2V409h-1978.7z"/></defs><defs><path id="b" d="M-872.4-430.6H841.7v718.9H-872.4z"/></defs><defs><path id="c" d="M-244.1 49.7L-252 46l-7.9 3.6V55c0 5 3.4 9.7 7.9 10.9 2-.5 3.8-1.7 5.1-3.4l-2.7-2.8c-1.7 1.2-4 1-5.5-.6-1.7-1.8-1.7-4.6 0-6.4 1.7-1.8 4.5-1.8 6.2 0 1.5 1.6 1.7 3.9.6 5.7l2.5 2.6c1.1-1.8 1.7-3.9 1.7-6v-5.3z"/></defs><clipPath id="d"><use xlink:href="#c" overflow="visible"/></clipPath><g clip-path="url(#d)"><defs><path id="e" d="M-1247.2-279.2H600.1v774.7h-1847.3z"/></defs></g><g><defs><ellipse id="f" cx="-252" cy="56" rx="2.6" ry="2.7"/></defs><clipPath id="g"><use xlink:href="#f" overflow="visible"/></clipPath><g clip-path="url(#g)"><defs><path id="h" d="M-1247.2-279.2H600.1v774.7h-1847.3z"/></defs></g></g></svg>
