<svg version="1.0" xmlns="http://www.w3.org/2000/svg" xmlns:xlink="http://www.w3.org/1999/xlink" viewBox="0 0 24 24"><path fill-rule="evenodd" clip-rule="evenodd" fill="#007FED" d="M21.7 6.7c.5-.5.5-1.2 0-1.7l-2.8-2.8c-.5-.5-1.2-.5-1.7 0L15 4.6 19.4 9l2.3-2.3zm-16.3 13H4.3v-1.1l9.5-9.4 1.1 1.1-9.5 9.4zm8.4-13.9L2 17.6V22h4.4l11.8-11.8-4.4-4.4z"/><defs><path id="a" d="M-1076.5-332.9H902.2V497h-1978.7z"/></defs><defs><path id="b" d="M-872.4-342.6H841.7v718.9H-872.4z"/></defs><defs><path id="c" d="M-244.1 137.7l-7.9-3.6-7.9 3.6v5.4c0 5 3.4 9.7 7.9 10.9 2-.5 3.8-1.7 5.1-3.4l-2.7-2.8c-1.7 1.2-4 1-5.5-.6-1.7-1.8-1.7-4.6 0-6.4 1.7-1.8 4.5-1.8 6.2 0 1.5 1.6 1.7 3.9.6 5.7l2.5 2.6c1.1-1.8 1.7-3.9 1.7-6v-5.4z"/></defs><clipPath id="d"><use xlink:href="#c" overflow="visible"/></clipPath><g clip-path="url(#d)"><defs><path id="e" d="M-1247.2-191.2H600.1v774.7h-1847.3z"/></defs></g><g><defs><ellipse id="f" cx="-252" cy="144" rx="2.6" ry="2.7"/></defs><clipPath id="g"><use xlink:href="#f" overflow="visible"/></clipPath><g clip-path="url(#g)"><defs><path id="h" d="M-1247.2-191.2H600.1v774.7h-1847.3z"/></defs></g></g></svg>
