<svg version="1.0" xmlns="http://www.w3.org/2000/svg" xmlns:xlink="http://www.w3.org/1999/xlink" viewBox="0 0 24 24"><path fill-rule="evenodd" clip-rule="evenodd" fill="#007FED" d="M18.9 15H5.5V6.5h13.4V15zM14 17.2h-3.6v-.9H14v.9zm6.4.1V4.7H3.6v12.6H2V19h20v-1.7h-1.6z"/><defs><path id="a" d="M-856.5-332.9h1978.7V497H-856.5z"/></defs><defs><path id="b" d="M-652.4-342.6h1714.1v718.9H-652.4z"/></defs><defs><path id="c" d="M-24.1 137.7L-32 134l-7.9 3.6v5.4c0 5 3.4 9.7 7.9 10.9 2-.5 3.8-1.7 5.1-3.4l-2.7-2.8c-1.7 1.2-4 1-5.5-.6-1.7-1.8-1.7-4.6 0-6.4 1.7-1.8 4.5-1.8 6.2 0 1.5 1.6 1.7 3.9.6 5.7l2.5 2.6c1.1-1.8 1.7-3.9 1.7-6v-5.3z"/></defs><clipPath id="d"><use xlink:href="#c" overflow="visible"/></clipPath><g clip-path="url(#d)"><defs><path id="e" d="M-1027.2-191.2H820.1v774.7h-1847.3z"/></defs></g><g><defs><ellipse id="f" cx="-32" cy="144" rx="2.6" ry="2.7"/></defs><clipPath id="g"><use xlink:href="#f" overflow="visible"/></clipPath><g clip-path="url(#g)"><defs><path id="h" d="M-1027.2-191.2H820.1v774.7h-1847.3z"/></defs></g></g></svg>
