<svg version="1.0" xmlns="http://www.w3.org/2000/svg" viewBox="0 0 24 24"><defs><path id="a" d="M-200.1 49.7L-208 46l-7.9 3.6V55c0 5 3.4 9.7 7.9 10.9 2-.5 3.8-1.7 5.1-3.4l-2.7-2.8c-1.7 1.2-4 1-5.5-.6-1.7-1.8-1.7-4.6 0-6.4 1.7-1.8 4.5-1.8 6.2 0 1.5 1.6 1.7 3.9.6 5.7l2.5 2.6c1.1-1.8 1.7-3.9 1.7-6v-5.3z"/></defs><defs><ellipse id="b" cx="-208" cy="56" rx="2.6" ry="2.7"/></defs><path fill="#007FED" d="M13 3.5V9h5.5L13 3.5zm2.4 10.6c.2 0 .3.1.4.2.1.1.1.2.1.4s0 .3-.1.4c-.1.1-.2.1-.4.1h-.6v-1h.6zm-6.7 0c.2 0 .3.1.4.2.1.1.1.2.1.4s0 .3-.1.4c-.1.1-.2.1-.4.1h-.6v-1h.6zm6.7-.7H14V17h.9v-1.2h.5c.4 0 .8-.1 1-.3.2-.2.4-.5.4-.8 0-.2-.1-.4-.2-.6-.1-.2-.3-.3-.5-.4-.2-.1-.4-.1-.6-.1l-.1-.2zm-4 0h-.9V17h.9v-1.5h1.3V17h.8v-3.5h-.8v1.4h-1.3v-1.5zm-2.7 0H7.3V17h.9v-1.2h.5c.4 0 .8-.1 1-.3.2-.2.4-.5.4-.8 0-.2-.1-.4-.2-.6-.1-.2-.3-.3-.5-.4-.2-.1-.4-.1-.6-.1l-.1-.2zM14 2l6 6v12c0 1.1-.9 2-2 2H6c-1.1 0-2-.9-2-2V4c0-1.1.9-2 2-2h8z"/></svg>
