<svg version="1.0" xmlns="http://www.w3.org/2000/svg" xmlns:xlink="http://www.w3.org/1999/xlink" viewBox="0 0 24 24"><defs><path id="a" d="M-900.5-464.9h1978.7V365H-900.5z"/></defs><defs><path id="b" d="M-696.4-474.6h1714.1v718.9H-696.4z"/></defs><defs><path id="c" d="M-68.1 5.7L-76 2l-7.9 3.6V11c0 5 3.4 9.7 7.9 10.9 2-.5 3.8-1.7 5.1-3.4l-2.7-2.8c-1.7 1.2-4 1-5.5-.6-1.7-1.8-1.7-4.6 0-6.4 1.7-1.8 4.5-1.8 6.2 0 1.5 1.6 1.7 3.9.6 5.7l2.5 2.6c1.1-1.8 1.7-3.9 1.7-6V5.7z"/></defs><clipPath id="d"><use xlink:href="#c" overflow="visible"/></clipPath><g clip-path="url(#d)"><defs><path id="e" d="M-1071.2-323.2H776.1v774.7h-1847.3z"/></defs></g><g><defs><ellipse id="f" cx="-76" cy="12" rx="2.6" ry="2.7"/></defs><clipPath id="g"><use xlink:href="#f" overflow="visible"/></clipPath><g clip-path="url(#g)"><defs><path id="h" d="M-1071.2-323.2H776.1v774.7h-1847.3z"/></defs></g></g><path fill="#007FED" d="M18.4 7.6h-1.8v1.8h1.8V7.6zM22 4v16h-5.4v-3.5h1.8v-1.8h-1.8v-1.8h1.8v-1.8h-1.8V9.5l-1.8-1.2v-.7h-1.2l-1.6-1-1.8-1.2V4H22zM8.5 6.4l6.2 4V20h-4.5v-7.1H6.6V20H2v-9.3l6.5-4.3z"/></svg>
