<svg version="1.0" xmlns="http://www.w3.org/2000/svg" xmlns:xlink="http://www.w3.org/1999/xlink" viewBox="0 0 24 24"><path fill="#007FED" d="M16.2 17.5H7.8V4.7h8.3v12.8zM12 21.1c-.8 0-1.4-.6-1.4-1.4 0-.8.6-1.4 1.4-1.4s1.4.6 1.4 1.4c0 .8-.6 1.4-1.4 1.4zM15.7 2H8.3C7 2 6 3 6 4.2v15.5C6 21 7 22 8.3 22h7.4c1.3 0 2.3-1 2.3-2.3V4.2C18 3 17 2 15.7 2z"/><defs><path id="a" d="M-724.5-332.9h1978.7V497H-724.5z"/></defs><defs><path id="b" d="M-520.4-342.6h1714.1v718.9H-520.4z"/></defs><defs><path id="c" d="M107.9 137.7L100 134l-7.9 3.6v5.4c0 5 3.4 9.7 7.9 10.9 2-.5 3.8-1.7 5.1-3.4l-2.7-2.8c-1.7 1.2-4 1-5.5-.6-1.7-1.8-1.7-4.6 0-6.4 1.7-1.8 4.5-1.8 6.2 0 1.5 1.6 1.7 3.9.6 5.7l2.5 2.6c1.1-1.8 1.7-3.9 1.7-6v-5.3z"/></defs><clipPath id="d"><use xlink:href="#c" overflow="visible"/></clipPath><g clip-path="url(#d)"><defs><path id="e" d="M-895.2-191.2H952.1v774.7H-895.2z"/></defs></g><g><defs><ellipse id="f" cx="100" cy="144" rx="2.6" ry="2.7"/></defs><clipPath id="g"><use xlink:href="#f" overflow="visible"/></clipPath><g clip-path="url(#g)"><defs><path id="h" d="M-895.2-191.2H952.1v774.7H-895.2z"/></defs></g></g></svg>
