<svg version="1.0" xmlns="http://www.w3.org/2000/svg" xmlns:xlink="http://www.w3.org/1999/xlink" viewBox="0 0 24 24"><path fill="#007FED" d="M21.7 6.5c.4-.4.4-1.1 0-1.6l-2.6-2.6c-.4-.4-1.1-.4-1.6 0l-2 2 4.2 4.2 2-2zM1.9 17.9v4.2h4.2L18.5 9.7l-4.2-4.2L1.9 17.9z"/><defs><path id="a" d="M-900.5-332.9h1978.7V497H-900.5z"/></defs><defs><path id="b" d="M-696.4-342.6h1714.1v718.9H-696.4z"/></defs><defs><path id="c" d="M-68.1 137.7L-76 134l-7.9 3.6v5.4c0 5 3.4 9.7 7.9 10.9 2-.5 3.8-1.7 5.1-3.4l-2.7-2.8c-1.7 1.2-4 1-5.5-.6-1.7-1.8-1.7-4.6 0-6.4 1.7-1.8 4.5-1.8 6.2 0 1.5 1.6 1.7 3.9.6 5.7l2.5 2.6c1.1-1.8 1.7-3.9 1.7-6v-5.3z"/></defs><clipPath id="d"><use xlink:href="#c" overflow="visible"/></clipPath><g clip-path="url(#d)"><defs><path id="e" d="M-1071.2-191.2H776.1v774.7h-1847.3z"/></defs></g><g><defs><ellipse id="f" cx="-76" cy="144" rx="2.6" ry="2.7"/></defs><clipPath id="g"><use xlink:href="#f" overflow="visible"/></clipPath><g clip-path="url(#g)"><defs><path id="h" d="M-1071.2-191.2H776.1v774.7h-1847.3z"/></defs></g></g></svg>
