<svg version="1.0" xmlns="http://www.w3.org/2000/svg" xmlns:xlink="http://www.w3.org/1999/xlink" viewBox="0 0 24 24"><defs><path id="a" d="M-724.5-508.9h1978.7V321H-724.5z"/></defs><defs><path id="b" d="M-520.4-518.6h1714.1v718.9H-520.4z"/></defs><defs><path id="c" d="M107.9-38.3L100-42l-7.9 3.6v5.4c0 5 3.4 9.7 7.9 10.9 2-.5 3.8-1.7 5.1-3.4l-2.7-2.8c-1.7 1.2-4 1-5.5-.6-1.7-1.8-1.7-4.6 0-6.4 1.7-1.8 4.5-1.8 6.2 0 1.5 1.6 1.7 3.9.6 5.7l2.5 2.6c1.1-1.8 1.7-3.9 1.7-6v-5.3z"/></defs><clipPath id="d"><use xlink:href="#c" overflow="visible"/></clipPath><g clip-path="url(#d)"><defs><path id="e" d="M-895.2-367.2H952.1v774.7H-895.2z"/></defs></g><g><defs><ellipse id="f" cx="100" cy="-32" rx="2.6" ry="2.7"/></defs><clipPath id="g"><use xlink:href="#f" overflow="visible"/></clipPath><g clip-path="url(#g)"><defs><path id="h" d="M-895.2-367.2H952.1v774.7H-895.2z"/></defs></g></g><path fill-rule="evenodd" clip-rule="evenodd" fill="#007FED" d="M14.8 13.1l-.8.6V16h-4v-2.3l-.8-.6C7.8 12.2 7 10.6 7 9c0-2.8 2.2-5 5-5s5 2.2 5 5c0 1.6-.8 3.2-2.2 4.1zM12 2C8.1 2 5 5.2 5 9c0 2.4 1.2 4.5 3 5.7V17c0 .5.4 1 1 1h6c.5 0 1-.4 1-1v-2.3c1.8-1.3 3-3.4 3-5.7 0-3.8-3.1-7-7-7zM9 21c0 .5.4 1 1 1h4c.5 0 1-.4 1-1v-1H9v1z"/></svg>
