<svg version="1.0" xmlns="http://www.w3.org/2000/svg" xmlns:xlink="http://www.w3.org/1999/xlink" viewBox="0 0 24 24"><defs><path id="a" d="M-988.5-464.9H990.2V365H-988.5z"/></defs><defs><path id="b" d="M-784.4-474.6H929.7v718.9H-784.4z"/></defs><path fill-rule="evenodd" clip-rule="evenodd" fill="#007FED" d="M12 3.7L8.7 7l1.6 1.6 3.3-3.3c1.4-1.4 3.7-1.4 5.1 0 1.4 1.4 1.4 3.7 0 5.1l-3.3 3.3 1.6 1.6 3.3-3.3c2.3-2.3 2.3-6 0-8.3s-6-2.3-8.3 0zM9.5 16.1l6.6-6.6-1.7-1.7-6.6 6.6 1.7 1.7zm-4.2 2.6c-1.4-1.4-1.4-3.7 0-5.1l3.3-3.3L7 8.7 3.7 12c-2.3 2.3-2.3 6 0 8.3s6 2.3 8.3 0l3.3-3.3-1.6-1.6-3.3 3.3c-1.4 1.4-3.7 1.4-5.1 0z"/><defs><path id="c" d="M-156.1 5.7L-164 2l-7.9 3.6V11c0 5 3.4 9.7 7.9 10.9 2-.5 3.8-1.7 5.1-3.4l-2.7-2.8c-1.7 1.2-4 1-5.5-.6-1.7-1.8-1.7-4.6 0-6.4 1.7-1.8 4.5-1.8 6.2 0 1.5 1.6 1.7 3.9.6 5.7l2.5 2.6c1.1-1.8 1.7-3.9 1.7-6V5.7z"/></defs><clipPath id="d"><use xlink:href="#c" overflow="visible"/></clipPath><g clip-path="url(#d)"><defs><path id="e" d="M-1159.2-323.2H688.1v774.7h-1847.3z"/></defs></g><g><defs><ellipse id="f" cx="-164" cy="12" rx="2.6" ry="2.7"/></defs><clipPath id="g"><use xlink:href="#f" overflow="visible"/></clipPath><g clip-path="url(#g)"><defs><path id="h" d="M-1159.2-323.2H688.1v774.7h-1847.3z"/></defs></g></g></svg>
