<svg version="1.0" xmlns="http://www.w3.org/2000/svg" xmlns:xlink="http://www.w3.org/1999/xlink" viewBox="0 0 24 24"><path fill="#007FED" d="M15.5 16.4l1.5-3.8 1.5 3.8h-3zm2.4-6.2h-1.8L12 20.8h1.8l1-2.6h4.3l1 2.6H22l-4.1-10.6zm-5.1 4.5l-2.3-2.2c1.6-1.7 2.7-3.7 3.4-5.8h2.7V4.9h-6.4V3.2H8.4V5H2v1.8h10.1c-.6 1.7-1.6 3.3-2.9 4.7-.8-.9-1.5-1.9-2.1-3H5.4c.7 1.4 1.6 2.8 2.7 4l-4.6 4.4 1.3 1.3 4.5-4.4 2.8 2.7.7-1.8z"/><defs><path id="a" d="M-812.5-376.9h1978.7V453H-812.5z"/></defs><defs><path id="b" d="M-608.4-386.6h1714.1v718.9H-608.4z"/></defs><defs><path id="c" d="M19.9 93.7L12 90l-7.9 3.6V99c0 5 3.4 9.7 7.9 10.9 2-.5 3.8-1.7 5.1-3.4l-2.7-2.8c-1.7 1.2-4 1-5.5-.6-1.7-1.8-1.7-4.6 0-6.4 1.7-1.8 4.5-1.8 6.2 0 1.5 1.6 1.7 3.9.6 5.7l2.5 2.6c1.1-1.8 1.7-3.9 1.7-6v-5.3z"/></defs><clipPath id="d"><use xlink:href="#c" overflow="visible"/></clipPath><g clip-path="url(#d)"><defs><path id="e" d="M-983.2-235.2H864.1v774.7H-983.2z"/></defs></g><g><defs><ellipse id="f" cx="12" cy="100" rx="2.6" ry="2.7"/></defs><clipPath id="g"><use xlink:href="#f" overflow="visible"/></clipPath><g clip-path="url(#g)"><defs><path id="h" d="M-983.2-235.2H864.1v774.7H-983.2z"/></defs></g></g></svg>
