<svg version="1.0" xmlns="http://www.w3.org/2000/svg" xmlns:xlink="http://www.w3.org/1999/xlink" viewBox="0 0 24 24"><g fill="#007FED"><path d="M22 9L9 22h3.1l9.9-9.9zM2 15L15 2h-3.1L2 11.9zM2 4.2v2.2L6.4 2H4.2C3 2 2 3 2 4.2zM20.4 2L2 20.4c.1.4.3.7.6 1 .3.3.6.5 1 .6L22 3.6c-.3-.7-.9-1.3-1.6-1.6zM21.4 21.4c.4-.4.7-1 .7-1.6v-2.2L17.6 22h2.2c.6 0 1.2-.2 1.6-.6z"/></g><defs><path id="a" d="M-988.5-376.9H990.2V453H-988.5z"/></defs><defs><path id="b" d="M-784.4-386.6H929.7v718.9H-784.4z"/></defs><defs><path id="c" d="M-156.1 93.7L-164 90l-7.9 3.6V99c0 5 3.4 9.7 7.9 10.9 2-.5 3.8-1.7 5.1-3.4l-2.7-2.8c-1.7 1.2-4 1-5.5-.6-1.7-1.8-1.7-4.6 0-6.4 1.7-1.8 4.5-1.8 6.2 0 1.5 1.6 1.7 3.9.6 5.7l2.5 2.6c1.1-1.8 1.7-3.9 1.7-6v-5.3z"/></defs><clipPath id="d"><use xlink:href="#c" overflow="visible"/></clipPath><g clip-path="url(#d)"><defs><path id="e" d="M-1159.2-235.2H688.1v774.7h-1847.3z"/></defs></g><g><defs><ellipse id="f" cx="-164" cy="100" rx="2.6" ry="2.7"/></defs><clipPath id="g"><use xlink:href="#f" overflow="visible"/></clipPath><g clip-path="url(#g)"><defs><path id="h" d="M-1159.2-235.2H688.1v774.7h-1847.3z"/></defs></g></g></svg>
