<svg version="1.0" xmlns="http://www.w3.org/2000/svg" xmlns:xlink="http://www.w3.org/1999/xlink" viewBox="0 0 24 24"><defs><path id="a" d="M-1032.5-464.9H946.2V365h-1978.7z"/></defs><defs><path id="b" d="M-828.4-474.6H885.7v718.9H-828.4z"/></defs><path fill-rule="evenodd" clip-rule="evenodd" fill="#007FED" d="M18 18c-1.1 0-2 .9-2 2s.9 2 2 2 2-.9 2-2-.9-2-2-2zM8 18c-1.1 0-2 .9-2 2s.9 2 2 2 2-.9 2-2-.9-2-2-2zM7.2 6h12.2l-2.8 5h-7L7.2 6zm9.3 7c.8 0 1.4-.4 1.8-1l3.6-6.5c.4-.7-.1-1.5-.9-1.5H6.2l-.9-2H2v2h2l3.6 7.6L6.2 14c-.7 1.3.2 3 1.8 3h12v-2H8l1.1-2h7.4z"/><defs><path id="c" d="M-200.1 5.7L-208 2l-7.9 3.6V11c0 5 3.4 9.7 7.9 10.9 2-.5 3.8-1.7 5.1-3.4l-2.7-2.8c-1.7 1.2-4 1-5.5-.6-1.7-1.8-1.7-4.6 0-6.4 1.7-1.8 4.5-1.8 6.2 0 1.5 1.6 1.7 3.9.6 5.7l2.5 2.6c1.1-1.8 1.7-3.9 1.7-6V5.7z"/></defs><clipPath id="d"><use xlink:href="#c" overflow="visible"/></clipPath><g clip-path="url(#d)"><defs><path id="e" d="M-1203.2-323.2H644.1v774.7h-1847.3z"/></defs></g><g><defs><ellipse id="f" cx="-208" cy="12" rx="2.6" ry="2.7"/></defs><clipPath id="g"><use xlink:href="#f" overflow="visible"/></clipPath><g clip-path="url(#g)"><defs><path id="h" d="M-1203.2-323.2H644.1v774.7h-1847.3z"/></defs></g></g></svg>
