<svg version="1.0" xmlns="http://www.w3.org/2000/svg" xmlns:xlink="http://www.w3.org/1999/xlink" viewBox="0 0 24 24"><defs><path id="a" d="M-812.5-508.9h1978.7V321H-812.5z"/></defs><defs><path id="b" d="M-608.4-518.6h1714.1v718.9H-608.4z"/></defs><defs><path id="c" d="M19.9-38.3L12-42l-7.9 3.6v5.4c0 5 3.4 9.7 7.9 10.9 2-.5 3.8-1.7 5.1-3.4l-2.7-2.8c-1.7 1.2-4 1-5.5-.6-1.7-1.8-1.7-4.6 0-6.4 1.7-1.8 4.5-1.8 6.2 0 1.5 1.6 1.7 3.9.6 5.7l2.5 2.6c1.1-1.8 1.7-3.9 1.7-6v-5.3z"/></defs><clipPath id="d"><use xlink:href="#c" overflow="visible"/></clipPath><g clip-path="url(#d)"><defs><path id="e" d="M-983.2-367.2H864.1v774.7H-983.2z"/></defs></g><g><defs><ellipse id="f" cx="12" cy="-32" rx="2.6" ry="2.7"/></defs><clipPath id="g"><use xlink:href="#f" overflow="visible"/></clipPath><g clip-path="url(#g)"><defs><path id="h" d="M-983.2-367.2H864.1v774.7H-983.2z"/></defs></g></g><path fill="#007FED" d="M17 8.3c.8 0 1.5.1 2.3.2v1.4c-.7-.2-1.5-.2-2.3-.2-1.6 0-3 .3-4.1.9V9c1.1-.5 2.5-.7 4.1-.7zm0 2.4c.8 0 1.5.1 2.3.2v1.4c-.7-.2-1.5-.2-2.3-.2-1.6 0-3 .3-4.1.9v-1.6c1.1-.4 2.5-.7 4.1-.7zm0 2.5c.8 0 1.5.1 2.3.2v1.4c-.7-.2-1.5-.2-2.3-.2-1.6 0-3 .3-4.1.9V14c1.1-.5 2.5-.8 4.1-.8zm0-7.3c-1.5 0-3.7.6-5 1.4V18c1.2-.8 3.4-1.4 5-1.4 1.1 0 2.2.1 3.2.5V6.4c-1.1-.3-2.2-.5-3.2-.5zm0-1.8c1.1 0 2.2.1 3.2.5.7.2 1.3.5 1.8.9v13.6c0 .2-.2.5-.5.5h-.2c-1.3-.7-2.8-1-4.3-1s-3.7.6-5 1.4c-1.3-1-3.2-1.4-5-1.4-1.3 0-3.1.4-4.3 1H2.4c-.2 0-.5-.2-.5-.5V5.5c1.3-1 3.2-1.4 5-1.4s3.7.4 5 1.4c1.4-1.1 3.3-1.4 5.1-1.4z"/></svg>
