<svg version="1.0" xmlns="http://www.w3.org/2000/svg" xmlns:xlink="http://www.w3.org/1999/xlink" viewBox="0 0 24 24"><path fill-rule="evenodd" clip-rule="evenodd" fill="#007FED" d="M20.5 12.3l-5.4 5.4-2.2-2.2-1.4 1.5 3.6 3.7 6.9-6.9-1.5-1.5zM4.1 18c.2-.7 2.7-1.8 5.2-2l2.1-2.1c-.4 0-.7-.1-1.1-.1C7.6 13.8 2 15.2 2 18v2.1h9.5L9.4 18H4.1zm6.3-12.6c1.2 0 2.1.9 2.1 2.1 0 1.2-.9 2.1-2.1 2.1-1.2 0-2.1-.9-2.1-2.1 0-1.1 1-2.1 2.1-2.1zm0 6.3c2.3 0 4.2-1.9 4.2-4.2 0-2.3-1.9-4.2-4.2-4.2-2.3 0-4.2 1.9-4.2 4.2 0 2.4 1.9 4.2 4.2 4.2z"/><defs><path id="a" d="M-768.5-376.9h1978.7V453H-768.5z"/></defs><defs><path id="b" d="M-564.4-386.6h1714.1v718.9H-564.4z"/></defs><defs><path id="c" d="M63.9 93.7L56 90l-7.9 3.6V99c0 5 3.4 9.7 7.9 10.9 2-.5 3.8-1.7 5.1-3.4l-2.7-2.8c-1.7 1.2-4 1-5.5-.6-1.7-1.8-1.7-4.6 0-6.4 1.7-1.8 4.5-1.8 6.2 0 1.5 1.6 1.7 3.9.6 5.7l2.5 2.6c1.1-1.8 1.7-3.9 1.7-6v-5.3z"/></defs><clipPath id="d"><use xlink:href="#c" overflow="visible"/></clipPath><g clip-path="url(#d)"><defs><path id="e" d="M-939.2-235.2H908.1v774.7H-939.2z"/></defs></g><g><defs><ellipse id="f" cx="56" cy="100" rx="2.6" ry="2.7"/></defs><clipPath id="g"><use xlink:href="#f" overflow="visible"/></clipPath><g clip-path="url(#g)"><defs><path id="h" d="M-939.2-235.2H908.1v774.7H-939.2z"/></defs></g></g></svg>
