<svg version="1.0" xmlns="http://www.w3.org/2000/svg" xmlns:xlink="http://www.w3.org/1999/xlink" viewBox="0 0 24 24"><defs><path id="a" d="M-768.5-464.9h1978.7V365H-768.5z"/></defs><defs><path id="b" d="M-564.4-474.6h1714.1v718.9H-564.4z"/></defs><path fill="#007FED" d="M16 6.1l2.2 2.2-4.8 4.9-4-4-7.3 7.3 1.4 1.4L9.4 12l4 4 6.2-6.3 2.3 2.3V6.1z"/><defs><path id="c" d="M63.9 5.7L56 2l-7.9 3.6V11c0 5 3.4 9.7 7.9 10.9 2-.5 3.8-1.7 5.1-3.4l-2.7-2.8c-1.7 1.2-4 1-5.5-.6-1.7-1.8-1.7-4.6 0-6.4 1.7-1.8 4.5-1.8 6.2 0 1.5 1.6 1.7 3.9.6 5.7l2.5 2.6c1.1-1.8 1.7-3.9 1.7-6V5.7z"/></defs><clipPath id="d"><use xlink:href="#c" overflow="visible"/></clipPath><g clip-path="url(#d)"><defs><path id="e" d="M-939.2-323.2H908.1v774.7H-939.2z"/></defs></g><g><defs><ellipse id="f" cx="56" cy="12" rx="2.6" ry="2.7"/></defs><clipPath id="g"><use xlink:href="#f" overflow="visible"/></clipPath><g clip-path="url(#g)"><defs><path id="h" d="M-939.2-323.2H908.1v774.7H-939.2z"/></defs></g></g></svg>
