<svg version="1.0" xmlns="http://www.w3.org/2000/svg" xmlns:xlink="http://www.w3.org/1999/xlink" viewBox="0 0 24 24"><defs><path id="a" d="M-988.5-508.9H990.2V321H-988.5z"/></defs><defs><path id="b" d="M-784.4-518.6H929.7v718.9H-784.4z"/></defs><defs><path id="c" d="M-156.1-38.3L-164-42l-7.9 3.6v5.4c0 5 3.4 9.7 7.9 10.9 2-.5 3.8-1.7 5.1-3.4l-2.7-2.8c-1.7 1.2-4 1-5.5-.6-1.7-1.8-1.7-4.6 0-6.4 1.7-1.8 4.5-1.8 6.2 0 1.5 1.6 1.7 3.9.6 5.7l2.5 2.6c1.1-1.8 1.7-3.9 1.7-6v-5.3z"/></defs><clipPath id="d"><use xlink:href="#c" overflow="visible"/></clipPath><g clip-path="url(#d)"><defs><path id="e" d="M-1159.2-367.2H688.1v774.7h-1847.3z"/></defs></g><g><defs><ellipse id="f" cx="-164" cy="-32" rx="2.6" ry="2.7"/></defs><clipPath id="g"><use xlink:href="#f" overflow="visible"/></clipPath><g clip-path="url(#g)"><defs><path id="h" d="M-1159.2-367.2H688.1v774.7h-1847.3z"/></defs></g></g><path fill-rule="evenodd" clip-rule="evenodd" fill="#007FED" d="M14 1.9h-4V10H1.9v4H10v8.1h4V14h8.1v-4H14z"/></svg>
