<svg version="1.0" xmlns="http://www.w3.org/2000/svg" xmlns:xlink="http://www.w3.org/1999/xlink" viewBox="0 0 24 24"><path fill="#007FED" d="M14 5.4c.7-.9 1.2-2.2 1-3.5-1 0-2.2.7-2.9 1.6-.6.8-1.2 2.1-1 3.4 1 .2 2.2-.5 2.9-1.5m-1.9 2.5c-.8 0-2-.9-3.2-.9-1.7 0-3.2 1-4.1 2.5-1.7 3-.4 7.5 1.2 10 .8 1.2 1.8 2.5 3.1 2.5 1.2-.1 1.7-.8 3.2-.8 1.5 0 1.9.8 3.2.8 1.3 0 2.2-1.2 3-2.4.9-1.4 1.3-2.7 1.4-2.8 0 0-2.6-1-2.6-4 0-2.5 2-3.7 2.1-3.8-1.2-1.7-3-1.9-3.6-2-1.5-.1-2.9.9-3.7.9z"/><defs><path id="a" d="M-812.5-332.9h1978.7V497H-812.5z"/></defs><defs><path id="b" d="M-608.4-342.6h1714.1v718.9H-608.4z"/></defs><defs><path id="c" d="M19.9 137.7L12 134l-7.9 3.6v5.4c0 5 3.4 9.7 7.9 10.9 2-.5 3.8-1.7 5.1-3.4l-2.7-2.8c-1.7 1.2-4 1-5.5-.6-1.7-1.8-1.7-4.6 0-6.4 1.7-1.8 4.5-1.8 6.2 0 1.5 1.6 1.7 3.9.6 5.7l2.5 2.6c1.1-1.8 1.7-3.9 1.7-6v-5.3z"/></defs><clipPath id="d"><use xlink:href="#c" overflow="visible"/></clipPath><g clip-path="url(#d)"><defs><path id="e" d="M-983.2-191.2H864.1v774.7H-983.2z"/></defs></g><g><defs><ellipse id="f" cx="12" cy="144" rx="2.6" ry="2.7"/></defs><clipPath id="g"><use xlink:href="#f" overflow="visible"/></clipPath><g clip-path="url(#g)"><defs><path id="h" d="M-983.2-191.2H864.1v774.7H-983.2z"/></defs></g></g></svg>
