<svg width="128" height="128" viewBox="0 0 128 128" fill="none" xmlns="http://www.w3.org/2000/svg"><path d="M108.595 36.681a15.307 15.307 0 01-13.37 15.188c-.662.091-1.33.134-1.998.13a15.328 15.328 0 1115.328-15.318h.04z" stroke="#007FED" stroke-width="4" stroke-miterlimit="10"/><path d="M93.267 32.475a2.288 2.288 0 100-4.577 2.288 2.288 0 000 4.577z" fill="#007FED"/><path d="M93.267 35.752v8.543" stroke="#007FED" stroke-width="4" stroke-miterlimit="10"/><path fill-rule="evenodd" clip-rule="evenodd" d="M95.257 51.865v46.59H29.275V32.323H78.53a15.35 15.35 0 00-.626 4H33.276v58.132h57.981V51.872c.651.085 1.309.127 1.97.127.669.004 1.336-.039 1.999-.13.01 0 .02-.002.031-.004z" fill="#007FED"/><path d="M62.201 64.09a8.763 8.763 0 100-17.526 8.763 8.763 0 000 17.526zM77.06 85.313v-2.668a14.86 14.86 0 10-29.707 0v2.668" stroke="#007FED" stroke-width="4" stroke-miterlimit="10"/></svg>
