<svg width="128" height="128" viewBox="0 0 128 128" fill="none" xmlns="http://www.w3.org/2000/svg"><path fill-rule="evenodd" clip-rule="evenodd" d="M21.367 32.91h-2v62.18h89.33V65.831h-4v25.26h-81.33V36.91h81.33v8.92h4v-12.92h-87.33z" fill="#007FED"/><path d="M31.037 81.63h11.64l21.43-21.44 21.34 21.34h11.53" stroke="#007FED" stroke-width="4" stroke-miterlimit="10"/><path d="M42.677 54.64a2.29 2.29 0 100-4.58 2.29 2.29 0 000 4.58z" fill="#007FED"/><path d="M104.572 65.51c5.357 0 9.7-4.343 9.7-9.7 0-5.357-4.343-9.7-9.7-9.7-5.357 0-9.7 4.343-9.7 9.7 0 5.357 4.343 9.7 9.7 9.7zM118.522 69.81l-6.99-6.99" stroke="#007FED" stroke-width="4" stroke-miterlimit="10"/></svg>
