<svg width="106" height="50" xmlns="http://www.w3.org/2000/svg"><path d="M100.33 32.042c0-1.551 1.218-2.799 2.74-2.799 1.523 0 2.74 1.248 2.74 2.8 0 1.55-1.217 2.798-2.74 2.798-1.522.03-2.74-1.247-2.74-2.799" fill="#86bc25"/><path d="M15.986 24.498c0 3.224-.853 5.688-2.588 7.453-1.736 1.734-4.172 2.616-7.308 2.616H0V15.28h6.516c3.015 0 5.36.79 7.003 2.373 1.645 1.551 2.467 3.833 2.467 6.845m-5.298.182c0-1.764-.335-3.073-1.036-3.924-.67-.852-1.735-1.278-3.105-1.278H5.055v10.8H6.18c1.553 0 2.68-.457 3.41-1.37.731-.942 1.097-2.342 1.097-4.228m22.35-9.522h4.841v19.379h-4.841zm20.797 12.169c0 2.342-.609 4.198-1.857 5.506-1.249 1.308-2.984 1.978-5.207 1.978-2.132 0-3.837-.67-5.085-2.008-1.248-1.339-1.888-3.164-1.888-5.476 0-2.343.61-4.168 1.857-5.476 1.249-1.308 2.984-1.947 5.207-1.947 1.37 0 2.588.304 3.654.912a6.132 6.132 0 012.467 2.586c.548 1.096.852 2.434.852 3.925m-9.135 0c0 1.247.153 2.19.488 2.829s.852.974 1.613.974c.762 0 1.28-.335 1.584-.974s.456-1.582.456-2.83c0-1.216-.152-2.16-.456-2.768-.305-.638-.853-.943-1.614-.943-.73 0-1.279.305-1.614.943-.274.609-.457 1.521-.457 2.769m11.053-7.18h4.841v14.39h-4.841zm0-4.989h4.841v3.073h-4.841zM70.46 30.886c.67 0 1.43-.152 2.344-.487v3.62c-.64.274-1.279.487-1.857.609-.579.122-1.28.183-2.071.183-1.644 0-2.801-.396-3.532-1.217-.73-.822-1.066-2.069-1.066-3.773v-5.932h-1.705v-3.711h1.705v-3.681l4.903-.852v4.533h3.105v3.71h-3.105v5.598c-.061.912.395 1.4 1.278 1.4m11.541 0c.67 0 1.43-.152 2.344-.487v3.62c-.64.274-1.279.487-1.857.609-.579.122-1.28.183-2.07.183-1.645 0-2.802-.396-3.533-1.217-.73-.822-1.066-2.069-1.066-3.773v-5.932h-1.705v-3.711h1.705v-3.742l4.903-.791v4.533h3.106v3.71H80.72v5.598c-.061.912.396 1.4 1.279 1.4m15.317-9.278c-1.158-1.126-2.802-1.704-4.903-1.704-2.223 0-3.928.639-5.146 1.947-1.187 1.307-1.796 3.164-1.796 5.597 0 2.343.64 4.168 1.949 5.446s3.105 1.917 5.45 1.917c1.127 0 2.101-.092 2.893-.244a8.624 8.624 0 002.344-.821l-.73-3.255a11.97 11.97 0 01-1.584.517 11.1 11.1 0 01-2.344.243c-.944 0-1.675-.243-2.223-.7-.548-.456-.822-1.095-.853-1.886h8.678v-2.22c0-2.1-.578-3.712-1.735-4.838m-6.852 3.955c.061-.79.305-1.369.67-1.734.396-.365.853-.547 1.431-.547.61 0 1.127.213 1.492.608.366.426.549.974.579 1.673zm-61.05-3.954c-1.157-1.126-2.801-1.704-4.902-1.704-2.223 0-3.928.639-5.146 1.947-1.188 1.307-1.797 3.164-1.797 5.597 0 2.343.64 4.168 1.949 5.446 1.31 1.278 3.106 1.917 5.45 1.917 1.127 0 2.101-.092 2.893-.244a8.624 8.624 0 002.345-.821l-.731-3.255a11.97 11.97 0 01-1.584.517 11.1 11.1 0 01-2.344.243c-.944 0-1.675-.243-2.223-.7-.548-.456-.822-1.095-.853-1.886h8.679v-2.22c0-2.1-.579-3.712-1.736-4.838m-6.851 3.955c.06-.79.304-1.369.67-1.734.396-.365.852-.547 1.43-.547.61 0 1.127.213 1.493.608.365.426.548.974.578 1.673z"/></svg>