<svg width="151" height="50" xmlns="http://www.w3.org/2000/svg" xmlns:xlink="http://www.w3.org/1999/xlink"><defs><path id="a" d="M0 .056h11.903v16.137H0z"/><path id="c" d="M.023.01H14.64v16.736H.023z"/><path id="e" d="M.099.01h16.695v16.736H.1z"/><path id="g" d="M.028.01h16.696v16.736H.028z"/><path id="i" d="M.036.056h14.09v16.137H.036z"/></defs><g fill="none" fill-rule="evenodd"><g transform="translate(0 17.37)"><mask id="b" fill="#fff"><use width="100%" height="100%" xlink:href="#a"/></mask><path d="M11.903.287v2.12c0 .139-.091.231-.227.231H2.703v4.334h7.405c.136 0 .227.092.227.23v2.121c0 .139-.09.23-.227.23H2.703v6.41c0 .138-.09.23-.227.23H.227c-.136 0-.227-.092-.227-.23V.286c0-.138.09-.23.227-.23h11.449c.136 0 .227.092.227.23" fill="#677b8c" mask="url(#b)"/></g><path d="M25.452 26.74a97.187 97.187 0 00-2.692-6.778h-.534a97.369 97.369 0 00-2.703 6.777h5.929zm4.758 6.823h-2.475c-.137 0-.228-.07-.262-.208a62.841 62.841 0 00-1.18-4.126h-7.599a56.346 56.346 0 00-1.17 4.126c-.034.139-.125.208-.261.208h-2.385c-.159 0-.25-.092-.205-.254 1.431-5.14 3.612-10.811 5.815-15.583.103-.219.228-.3.444-.3h3.225c.216 0 .34.081.443.3 2.226 4.76 4.373 10.443 5.815 15.583.045.162-.046.254-.205.254z" fill="#677b8c"/><g transform="translate(34.253 17.116)"><mask id="d" fill="#fff"><use width="100%" height="100%" xlink:href="#c"/></mask><path d="M.023 8.517C.023 3.514 3.271.01 7.905.01h.34c2.908 0 5.157 1.498 6.35 3.665.08.138.056.253-.08.323L12.516 5c-.136.07-.306.07-.397-.103-.84-1.476-2.101-2.26-3.964-2.26h-.34c-2.92 0-4.93 2.352-4.93 5.764 0 3.423 1.976 5.716 4.93 5.716h.34c1.908 0 3.021-.657 3.873-1.66.113-.126.239-.15.375-.08l2.055 1.014c.08.046.114.104.114.162 0 .057-.023.103-.068.172-1.26 1.868-3.532 3.02-6.303 3.02H7.86c-4.714 0-7.837-3.285-7.837-8.23" fill="#677b8c" mask="url(#d)"/></g><path d="M66.94 31.212v2.12c0 .139-.091.23-.227.23H54.787c-.136 0-.227-.091-.227-.23V17.657c0-.138.09-.23.227-.23h11.721c.136 0 .227.092.227.23v2.12c0 .14-.09.231-.227.231h-9.245v4.196h7.519c.136 0 .227.092.227.23v2.098c0 .138-.09.23-.227.23h-7.519v4.22h9.45c.136 0 .227.091.227.23m17.762-2.317c0-1.499-.976-2.179-3.123-2.179h-5.35v4.334h5.35c2.18 0 3.123-.645 3.123-2.155m-3.884-8.956H76.23v4.334h4.588c2.056 0 2.998-.68 2.998-2.167s-.942-2.167-2.998-2.167m6.656 9.198c0 2.824-2.136 4.426-5.906 4.426h-7.814c-.137 0-.227-.092-.227-.23V17.656c0-.138.09-.23.227-.23h7.12c3.67 0 5.668 1.475 5.668 4.172 0 1.775-.886 2.94-2.68 3.48 2.521.542 3.612 2.075 3.612 4.058" fill="#677b8c"/><g transform="translate(92.133 17.116)"><mask id="f" fill="#fff"><use width="100%" height="100%" xlink:href="#e"/></mask><path d="M8.617 14.118c3.26 0 5.315-2.27 5.315-5.74 0-3.469-2.056-5.74-5.315-5.74h-.341c-3.26 0-5.315 2.271-5.315 5.74 0 3.47 2.055 5.74 5.315 5.74h.34zM.099 8.378C.099 3.514 3.279.01 8.276.01h.34c4.998 0 8.178 3.504 8.178 8.368s-3.18 8.368-8.177 8.368h-.341c-4.997 0-8.177-3.504-8.177-8.368z" fill="#677b8c" mask="url(#f)"/></g><g transform="translate(113.51 17.116)"><mask id="h" fill="#fff"><use width="100%" height="100%" xlink:href="#g"/></mask><path d="M8.546 14.118c3.26 0 5.315-2.27 5.315-5.74 0-3.469-2.055-5.74-5.315-5.74h-.34c-3.26 0-5.316 2.271-5.316 5.74 0 3.47 2.056 5.74 5.315 5.74zM.028 8.378C.028 3.514 3.208.01 8.205.01h.341c4.998 0 8.178 3.504 8.178 8.368s-3.18 8.368-8.178 8.368h-.34c-4.998 0-8.178-3.504-8.178-8.368z" fill="#677b8c" mask="url(#h)"/></g><g transform="translate(135.89 17.37)"><mask id="j" fill="#fff"><use width="100%" height="100%" xlink:href="#i"/></mask><path d="M13.938 16.193h-2.93c-.194 0-.273-.046-.398-.196-2.056-2.455-4.486-4.899-6.553-6.697H2.739v6.662c0 .139-.09.23-.227.23H.263c-.136 0-.227-.091-.227-.23V.287c0-.138.09-.23.227-.23h2.25c.135 0 .226.092.226.23v6.362h1.34C6.294 4.621 8.34 2.431 10.008.23c.114-.15.204-.173.34-.173h2.772c.136 0 .204.07.204.162 0 .046-.022.104-.08.173-2.441 3.054-4.86 5.555-7.098 7.492a68.98 68.98 0 017.917 8.022c.124.15.056.288-.125.288" fill="#677b8c" mask="url(#j)"/></g></g><path fill="#00f" fill-rule="evenodd" d="M79.491-13.424h.481v.12h-.481z"/></svg>