<svg xmlns="http://www.w3.org/2000/svg" width="97" height="50"  viewBox="0 0 97 50" fill="none"><path d="M23.872 23.415H12.565v3.37h8.019c-.396 4.724-4.31 6.738-8.006 6.738-4.727 0-8.852-3.734-8.852-8.969 0-5.1 3.932-9.026 8.863-9.026 3.804 0 6.045 2.434 6.045 2.434l2.35-2.442s-3.016-3.371-8.516-3.371c-7.002 0-12.42 5.935-12.42 12.345 0 6.281 5.097 12.407 12.6 12.407 6.598 0 11.429-4.54 11.429-11.251 0-1.416-.205-2.235-.205-2.235z" fill="#4285f4"/><path d="M33.135 20.976c-4.64 0-7.965 3.642-7.965 7.89 0 4.31 3.225 8.02 8.02 8.02 4.34 0 7.895-3.33 7.895-7.928 0-5.269-4.136-7.982-7.95-7.982zm.046 3.125c2.282 0 4.444 1.852 4.444 4.836 0 2.921-2.153 4.826-4.455 4.826-2.528 0-4.523-2.033-4.523-4.849 0-2.755 1.97-4.813 4.534-4.813z" fill="#ea4335"/><path d="M50.458 20.976c-4.64 0-7.965 3.642-7.965 7.89 0 4.31 3.225 8.02 8.02 8.02 4.34 0 7.895-3.33 7.895-7.928 0-5.269-4.136-7.982-7.95-7.982zm.046 3.125c2.282 0 4.444 1.852 4.444 4.836 0 2.921-2.153 4.826-4.454 4.826-2.53 0-4.524-2.033-4.524-4.849 0-2.755 1.97-4.813 4.534-4.813z" fill="#fbbc05"/><path d="M67.448 20.984c-4.26 0-7.607 3.745-7.607 7.949 0 4.788 3.881 7.964 7.533 7.964 2.258 0 3.459-.9 4.345-1.933v1.568c0 2.745-1.66 4.388-4.165 4.388-2.42 0-3.634-1.806-4.055-2.832l-3.045 1.279c1.08 2.293 3.254 4.685 7.126 4.685 4.234 0 7.461-2.678 7.461-8.295V21.462h-3.322v1.348c-1.02-1.105-2.417-1.826-4.271-1.826zm.308 3.119c2.088 0 4.232 1.79 4.232 4.847 0 3.107-2.14 4.82-4.278 4.82-2.27 0-4.383-1.851-4.383-4.79 0-3.055 2.194-4.877 4.429-4.877z" fill="#4285f4"/><path d="M89.81 20.965c-4.017 0-7.39 3.21-7.39 7.945 0 5.01 3.76 7.982 7.776 7.982 3.353 0 5.41-1.841 6.638-3.49l-2.74-1.83c-.71 1.107-1.898 2.19-3.88 2.19-2.228 0-3.252-1.225-3.887-2.412l10.624-4.426-.551-1.297c-1.027-2.54-3.421-4.662-6.59-4.662zm.139 3.06c1.448 0 2.49.773 2.932 1.699l-7.095 2.977c-.306-2.305 1.87-4.676 4.163-4.676z" fill="#ea4335"/><path d="M77.356 36.42h3.49V12.97h-3.49z" fill="#34a853"/></svg>
