<svg width="62" height="50" xmlns="http://www.w3.org/2000/svg" xmlns:xlink="http://www.w3.org/1999/xlink"><defs><path id="a" d="M.04.102h30.873v1.774H.04z"/><path id="c" d="M.04.142h32.72v1.761H.04z"/><path id="e" d="M.04.172h49.958v1.762H.04z"/><path id="g" d="M.04.204h42.824v1.77H.04z"/></defs><g transform="translate(0 12.45)" fill="none" fill-rule="evenodd"><path d="M61.827 1.873H51.535l.635-1.77h9.657v1.77M34.392.103L43.947.1l.626 1.775c.004-.003-10.178.002-10.178 0 0-.003-.006-1.773-.003-1.773" fill="#4c78af"/><mask id="b" fill="#fff"><use width="100%" height="100%" xlink:href="#a"/></mask><path d="M26.803.103c1.575.15 2.944.71 4.11 1.773 0 0-17.32.001-17.32 0V.102h13.21M.04 1.872h11.994V.102H.04z" fill="#4c78af" mask="url(#b)"/><path d="M61.827 5.193H50.356s.625-1.76.622-1.76h10.849v1.76m-16.072.002H34.39V3.432h10.742l.622 1.763" fill="#4c78af"/><g transform="translate(0 3.29)"><mask id="d" fill="#fff"><use width="100%" height="100%" xlink:href="#c"/></mask><path d="M32.262.142c.228.582.498 1.078.498 1.761H13.596V.143h18.666M.04 1.903h11.994V.143H.04z" fill="#4c78af" mask="url(#d)"/></g><path d="M49.182 8.522l.63-1.769 8.613.003v1.762l-9.243.004m-2.875-1.769l.628 1.77h-9.156v-1.77h8.528m-13.395-.001c0 .607-.076 1.24-.253 1.77h-5.247v-1.77h5.5M3.355 8.522h5.172V6.76H3.355zm13.723 0h5.162v-1.77h-5.162zm25.786 1.912s.002 1.339.001 1.342H37.78v-1.762h9.693l.601 1.643c.003 0 .58-1.646.582-1.643h9.767v1.762H53.36l-.003-1.342-.467 1.342-9.559-.003-.468-1.34m-25.785-.419h14.82a6.63 6.63 0 01-1.47 1.762s-13.351.002-13.351 0v-1.762M3.355 11.776h5.172v-1.762H3.355zm50.005 3.321h5.062v-1.761H53.36zm-10.496-1.761H37.78v1.76h5.087s.006-1.76-.002-1.76m9.475 0c-.025-.004-.594 1.76-.617 1.76l-7.21.003c-.005-.002-.633-1.767-.634-1.763h8.46m-35.263-.001h13.326a8.687 8.687 0 011.589 1.761H17.077v-1.761m-8.551 1.761v-1.761H3.364v1.76l5.162.001m44.834 3.322h5.061v-1.762h-5.06zm-15.58-.001h5.084v-1.761H37.78zm12.759.009c0-.008.624-1.772.633-1.77h-6.128c-.01-.001.628 1.762.628 1.762s4.865.016 4.867.008m-33.462-.009v-1.762h5.24s.004 1.763 0 1.763c-.005 0-5.24-.003-5.24 0m15.649-1.763c.253.531.28 1.163.33 1.77h-5.552v-1.77h5.222M3.364 18.416h5.162v-1.76H3.364zm49.996 3.255h8.466V19.91H53.36zm-18.97 0h8.474V19.91h-8.473z" fill="#4c78af"/><g transform="translate(0 19.737)"><mask id="f" fill="#fff"><use width="100%" height="100%" xlink:href="#e"/></mask><path d="M49.4 1.934h-2.585l-.62-1.762h3.803l-.599 1.762M0 .172v1.762h12.025c.005.002-.006-1.761 0-1.761L0 .172" fill="#4c78af" mask="url(#f)"/></g><path d="M32.836 19.909c-.127.58-.242 1.289-.669 1.761H13.596v-1.76h19.24m15.392 5.085h-.237l-.605-1.765h1.463l-.62 1.765M53.36 25h8.466v-1.77H53.36zm-39.767-.005v-1.763l17.422.002c-1.167 1.113-2.767 1.741-4.49 1.765l-12.93-.004" fill="#4c78af"/><g transform="translate(0 23.026)"><mask id="h" fill="#fff"><use width="100%" height="100%" xlink:href="#g"/></mask><path d="M34.39 1.973h8.474V.203h-8.473zM12.025.211s-.006 1.758 0 1.758c.005 0-12.021.007-12.024.003C-.002 1.97.004.206 0 .206s12.018.01 12.024.005" fill="#4c78af" mask="url(#h)"/></g></g></svg>