<svg xmlns="http://www.w3.org/2000/svg" width="116" height="50" fill="none" viewBox="0 0 116 50"><g clip-path="url(#clip0)" transform="translate(0 15.4)"><path d="M17.51 13.197l-1.224 6.811c-.2 1.227-1 1.553-1.699 1.553H9.242l2.223-12.496c-2.273-1.052-4.521-1.703-6.37-1.703-1.748 0-3.172.476-4.096 1.603C.325 9.766 0 10.768 0 11.945c0 3.58 2.773 8.49 7.543 12.52C11.79 28.023 16.462 30 19.858 30c1.698 0 3.072-.526 3.972-1.553.699-.8.999-1.853.999-3.03 0-3.455-2.798-8.288-7.32-12.22z" fill="#0099f8"/><path d="M61.947 17.329c0-2.454-8.443-.701-8.443-5.785 0-4.632 4.996-5.86 8.268-5.86 3.297 0 7.269.752 6.894 4.884h-5.52c.05-.626-.15-1.503-1.899-1.503-.949 0-1.648.426-1.648 1.027 0 2.229 8.742.951 8.742 5.81 0 3.981-3.647 6.16-9.117 6.16-3.772 0-7.493-1.077-7.119-5.259h5.845c-.1.676.05 1.903 1.973 1.903 1.025-.025 2.024-.5 2.024-1.377zm28.925-8.064l.524-3.18h-5.47L83.13 21.561h4.62c.7 0 1.474-.326 1.699-1.553l.724-3.73c.65-3.407 2.074-4.533 4.447-4.533.524 0 1.074.1 1.473.2l1.074-6.16a5.02 5.02 0 00-.949-.1c-2.223 0-3.871 1.126-5.245 3.605h-.1zm-13.014 6.01l.85-4.732h3.072l.799-4.458h-3.072l.849-4.783H75.91c-.7 0-1.499.326-1.699 1.553l-.574 3.23h-2.323l-.8 4.458h2.323l-.999 5.584c-.2 1.127-.325 2.028-.325 2.78 0 2.504 2.074 3.13 8.268 2.704l.75-4.407h-1.124c-1.699.025-1.799-.501-1.549-1.929zm-25.353-15h-4.621c-.7 0-1.499.326-1.699 1.553l-3.547 19.733h4.621c.7 0 1.5-.326 1.699-1.553zM7.893 0c-.849 0-1.548.576-1.748 1.477l-.75 4.107h6.745L9.217 21.586h5.37c.725 0 1.524-.326 1.75-1.553L18.783 5.61h4.846c.85 0 1.549-.576 1.748-1.477l.75-4.107H7.893zm22.381 12.12h5.57a2.258 2.258 0 00-2.223-2.704c-1.823 0-3.072 1.001-3.347 2.704zm-.574 3.156c-.275 1.803.949 3.03 2.547 3.03 1 0 1.924-.426 2.498-1.378h5.895c-1.673 3.857-5.695 5.134-9.317 5.134-4.396 0-7.643-2.229-7.643-6.586 0-6.21 5.295-9.792 10.34-9.792 4.947 0 7.694 2.93 7.694 7.338 0 .7-.1 1.477-.225 2.279H29.7zm79.031-2.555c0-1.277-.649-2.329-2.123-2.329-2.023 0-3.347 2.129-3.347 4.909 0 1.277.425 2.328 1.898 2.328 2.199.025 3.572-2.103 3.572-4.908zM116 6.111l-2.747 15.475h-5.521l.375-2.028h-.1c-1.599 1.803-3.347 2.504-5.245 2.504-3.772 0-5.72-2.555-5.72-6.16 0-5.385 3.596-10.218 8.267-10.218 1.924 0 3.347.627 4.147 2.129h.1c.2-1.277.999-1.703 1.798-1.703z" fill="#001e82"/></g><defs id="defs11"><clipPath id="clip0"><path fill="#fff" id="rect8" d="M0 0h116v30H0z"/></clipPath></defs></svg>
