<svg width="128" height="128" viewBox="0 0 128 128" fill="none" xmlns="http://www.w3.org/2000/svg"><path d="M64 100.531c20.176 0 36.531-16.355 36.531-36.531S84.176 27.468 64 27.468 27.469 43.825 27.469 64c0 20.176 16.355 36.531 36.531 36.531z" stroke="#007FED" stroke-width="4" stroke-miterlimit="10"/><path d="M77.792 77.792c7.617-7.617 7.617-19.967 0-27.584-7.617-7.617-19.967-7.617-27.584 0a19.426 19.426 0 00-5.628 11.969M58.185 19.425h11.63M64 27.758v-8.903M89.26 38.74l7.614-7.614M66 66.22l13.09 13.09" stroke="#007FED" stroke-width="4" stroke-miterlimit="10"/><path d="M66.825 66.828a3.997 3.997 0 11-5.65-5.656 3.997 3.997 0 015.65 5.656z" stroke="#007FED" stroke-width="4" stroke-miterlimit="10"/></svg>
